<mxfile host="app.diagrams.net" modified="2020-04-22T10:19:16.619Z" agent="5.0 (X11; Linux x86_64) AppleWebKit/537.36 (KHTML, like Gecko) Chrome/80.0.3987.163 Safari/537.36 OPR/67.0.3575.137" etag="EG-BSZFNZu37QFmBLapu" version="12.9.12" type="github" pages="4">
  <diagram id="vbSpEZDxIwtjPWaokUpX" name="Domain">
    <mxGraphModel dx="1517" dy="936" grid="1" gridSize="10" guides="1" tooltips="1" connect="1" arrows="1" fold="1" page="1" pageScale="1" pageWidth="1169" pageHeight="827" math="0" shadow="0">
      <root>
        <mxCell id="0" />
        <mxCell id="1" parent="0" />
        <mxCell id="MV4Hy2AoagP0RmXen3qM-6" value="Management&lt;br&gt;Domain" style="rounded=0;whiteSpace=wrap;html=1;fontSize=24;strokeWidth=5;align=left;verticalAlign=top;fillColor=#ffffff;" parent="1" vertex="1">
          <mxGeometry x="70" y="20" width="1060" height="510.38" as="geometry" />
        </mxCell>
        <mxCell id="BNoNXe1phgjn9KGzHpxG-6" value="&lt;font style=&quot;font-size: 32px&quot;&gt;Management Functions&lt;/font&gt;" style="rounded=1;whiteSpace=wrap;html=1;" parent="1" vertex="1">
          <mxGeometry x="130" y="472" width="787" height="40.91" as="geometry" />
        </mxCell>
        <mxCell id="BNoNXe1phgjn9KGzHpxG-7" value="" style="aspect=fixed;html=1;points=[];align=center;image;fontSize=12;image=img/lib/mscae/Service_Fabric.svg;" parent="1" vertex="1">
          <mxGeometry x="399.99652173913046" y="328.62" width="39.89130434782608" height="39.89130434782608" as="geometry" />
        </mxCell>
        <mxCell id="BNoNXe1phgjn9KGzHpxG-9" style="edgeStyle=orthogonalEdgeStyle;rounded=0;orthogonalLoop=1;jettySize=auto;html=1;exitX=0;exitY=0.5;exitDx=0;exitDy=0;exitPerimeter=0;entryX=0.615;entryY=0.988;entryDx=0;entryDy=0;entryPerimeter=0;endArrow=none;endFill=0;fontSize=24;" parent="1" edge="1">
          <mxGeometry relative="1" as="geometry">
            <mxPoint x="737.5" y="410.19000000000005" as="sourcePoint" />
            <mxPoint x="735.6300000000001" y="368.01908000000003" as="targetPoint" />
          </mxGeometry>
        </mxCell>
        <mxCell id="BNoNXe1phgjn9KGzHpxG-12" style="edgeStyle=orthogonalEdgeStyle;rounded=0;orthogonalLoop=1;jettySize=auto;html=1;exitX=1;exitY=0.5;exitDx=0;exitDy=0;exitPerimeter=0;entryX=0.701;entryY=1.016;entryDx=0;entryDy=0;entryPerimeter=0;endArrow=none;endFill=0;fontSize=24;" parent="1" edge="1">
          <mxGeometry relative="1" as="geometry">
            <mxPoint x="786.5" y="405.19000000000005" as="sourcePoint" />
            <mxPoint x="783.962" y="369.16455999999994" as="targetPoint" />
          </mxGeometry>
        </mxCell>
        <mxCell id="MV4Hy2AoagP0RmXen3qM-4" value="" style="group;fontSize=24;" parent="1" vertex="1" connectable="0">
          <mxGeometry x="256" y="349.21914357682624" width="734" height="40.90680100755667" as="geometry" />
        </mxCell>
        <mxCell id="MV4Hy2AoagP0RmXen3qM-5" value="" style="aspect=fixed;html=1;points=[];align=center;image;fontSize=12;image=img/lib/mscae/Service_Fabric.svg;" parent="MV4Hy2AoagP0RmXen3qM-4" vertex="1">
          <mxGeometry x="15.956521739130435" y="5.843828715365239" width="23.311794984120024" height="23.311794984120024" as="geometry" />
        </mxCell>
        <mxCell id="MV4Hy2AoagP0RmXen3qM-7" value="&lt;font style=&quot;font-size: 33px&quot;&gt;&lt;b&gt;Domain&lt;/b&gt; Integration Fabric&lt;/font&gt;" style="rounded=1;whiteSpace=wrap;html=1;" parent="1" vertex="1">
          <mxGeometry x="240" y="50" width="622" height="40.91" as="geometry" />
        </mxCell>
        <mxCell id="Y2rbPJFugSSyYV6QfgTF-3" style="edgeStyle=orthogonalEdgeStyle;rounded=0;orthogonalLoop=1;jettySize=auto;html=1;exitX=0;exitY=0.15;exitDx=0;exitDy=0;exitPerimeter=0;entryX=1;entryY=0.5;entryDx=0;entryDy=0;entryPerimeter=0;endArrow=none;endFill=0;" edge="1" parent="1" source="MV4Hy2AoagP0RmXen3qM-9" target="Y2rbPJFugSSyYV6QfgTF-2">
          <mxGeometry relative="1" as="geometry" />
        </mxCell>
        <mxCell id="Y2rbPJFugSSyYV6QfgTF-4" style="edgeStyle=orthogonalEdgeStyle;rounded=0;orthogonalLoop=1;jettySize=auto;html=1;exitX=0;exitY=0.85;exitDx=0;exitDy=0;exitPerimeter=0;entryX=0;entryY=0.5;entryDx=0;entryDy=0;entryPerimeter=0;endArrow=none;endFill=0;" edge="1" parent="1" source="MV4Hy2AoagP0RmXen3qM-9" target="Y2rbPJFugSSyYV6QfgTF-1">
          <mxGeometry relative="1" as="geometry" />
        </mxCell>
        <mxCell id="MV4Hy2AoagP0RmXen3qM-9" value="Data&lt;br&gt;Services" style="strokeWidth=2;html=1;shape=mxgraph.flowchart.database;whiteSpace=wrap;fontSize=24;verticalAlign=top;labelPosition=center;verticalLabelPosition=bottom;align=center;" parent="1" vertex="1">
          <mxGeometry x="1020" y="60.00045340050377" width="95" height="40.90680100755667" as="geometry" />
        </mxCell>
        <mxCell id="MV4Hy2AoagP0RmXen3qM-10" value="&lt;font style=&quot;font-size: 32px&quot;&gt;Management Functions&lt;/font&gt;" style="rounded=1;whiteSpace=wrap;html=1;" parent="1" vertex="1">
          <mxGeometry x="130" y="472" width="787" height="40.91" as="geometry" />
        </mxCell>
        <mxCell id="MV4Hy2AoagP0RmXen3qM-11" value="" style="aspect=fixed;html=1;points=[];align=center;image;fontSize=12;image=img/lib/mscae/Service_Fabric.svg;" parent="1" vertex="1">
          <mxGeometry x="309.99652173913046" y="50" width="39.89130434782608" height="39.89130434782608" as="geometry" />
        </mxCell>
        <mxCell id="MV4Hy2AoagP0RmXen3qM-12" style="edgeStyle=orthogonalEdgeStyle;rounded=0;orthogonalLoop=1;jettySize=auto;html=1;entryX=0.771;entryY=0.046;entryDx=0;entryDy=0;endArrow=none;endFill=0;fontSize=24;entryPerimeter=0;" parent="1" source="MV4Hy2AoagP0RmXen3qM-14" edge="1">
          <mxGeometry relative="1" as="geometry">
            <mxPoint x="806.777" y="470.77185999999995" as="targetPoint" />
          </mxGeometry>
        </mxCell>
        <mxCell id="MV4Hy2AoagP0RmXen3qM-13" style="edgeStyle=orthogonalEdgeStyle;rounded=0;orthogonalLoop=1;jettySize=auto;html=1;exitX=0;exitY=0.5;exitDx=0;exitDy=0;exitPerimeter=0;entryX=0.778;entryY=1.076;entryDx=0;entryDy=0;entryPerimeter=0;endArrow=none;endFill=0;fontSize=24;" parent="1" source="MV4Hy2AoagP0RmXen3qM-14" edge="1">
          <mxGeometry relative="1" as="geometry">
            <mxPoint x="807.2359999999999" y="90.90915999999983" as="targetPoint" />
          </mxGeometry>
        </mxCell>
        <mxCell id="MV4Hy2AoagP0RmXen3qM-14" value="" style="shape=providedRequiredInterface;html=1;verticalLabelPosition=bottom;strokeWidth=3;fillColor=#ffffff;fontSize=24;rotation=90;" parent="1" vertex="1">
          <mxGeometry x="790" y="406.08000000000004" width="35" height="37" as="geometry" />
        </mxCell>
        <mxCell id="MV4Hy2AoagP0RmXen3qM-15" style="edgeStyle=orthogonalEdgeStyle;rounded=0;orthogonalLoop=1;jettySize=auto;html=1;exitX=0;exitY=0.5;exitDx=0;exitDy=0;exitPerimeter=0;entryX=0.835;entryY=0.017;entryDx=0;entryDy=0;entryPerimeter=0;endArrow=none;endFill=0;fontSize=24;" parent="1" source="MV4Hy2AoagP0RmXen3qM-17" edge="1">
          <mxGeometry relative="1" as="geometry">
            <mxPoint x="857.145" y="469.5854699999999" as="targetPoint" />
          </mxGeometry>
        </mxCell>
        <mxCell id="MV4Hy2AoagP0RmXen3qM-16" style="edgeStyle=orthogonalEdgeStyle;rounded=0;orthogonalLoop=1;jettySize=auto;html=1;exitX=1;exitY=0.5;exitDx=0;exitDy=0;exitPerimeter=0;entryX=0.865;entryY=1.11;entryDx=0;entryDy=0;entryPerimeter=0;endArrow=none;endFill=0;fontSize=24;" parent="1" source="MV4Hy2AoagP0RmXen3qM-17" edge="1">
          <mxGeometry relative="1" as="geometry">
            <mxPoint x="856.1300000000001" y="92.30009999999983" as="targetPoint" />
          </mxGeometry>
        </mxCell>
        <mxCell id="MV4Hy2AoagP0RmXen3qM-17" value="" style="shape=providedRequiredInterface;html=1;verticalLabelPosition=bottom;strokeWidth=3;fillColor=#ffffff;fontSize=24;rotation=-90;" parent="1" vertex="1">
          <mxGeometry x="839" y="401.08000000000004" width="35" height="37" as="geometry" />
        </mxCell>
        <mxCell id="L7ytGBTD2fuBD8t5aJeN-1" value="" style="group" parent="1" vertex="1" connectable="0">
          <mxGeometry x="70" y="572" width="1013" height="230" as="geometry" />
        </mxCell>
        <mxCell id="L7ytGBTD2fuBD8t5aJeN-2" value="" style="rounded=0;whiteSpace=wrap;html=1;fontSize=24;fillColor=none;strokeWidth=5;align=left;verticalAlign=top;" parent="L7ytGBTD2fuBD8t5aJeN-1" vertex="1">
          <mxGeometry x="44" y="11.277078085642318" width="969" height="109.72292191435767" as="geometry" />
        </mxCell>
        <mxCell id="L7ytGBTD2fuBD8t5aJeN-3" value="" style="rounded=0;whiteSpace=wrap;html=1;fontSize=24;fillColor=#ffffff;strokeWidth=5;align=left;verticalAlign=top;" parent="L7ytGBTD2fuBD8t5aJeN-1" vertex="1">
          <mxGeometry x="22" y="6.7052896725440805" width="966" height="109.72292191435767" as="geometry" />
        </mxCell>
        <mxCell id="L7ytGBTD2fuBD8t5aJeN-4" value="" style="group;fontSize=24;" parent="L7ytGBTD2fuBD8t5aJeN-1" vertex="1" connectable="0">
          <mxGeometry x="186" y="15.239294710327455" width="734" height="21.335012594458437" as="geometry" />
        </mxCell>
        <mxCell id="L7ytGBTD2fuBD8t5aJeN-5" value="" style="aspect=fixed;html=1;points=[];align=center;image;fontSize=12;image=img/lib/mscae/Service_Fabric.svg;" parent="L7ytGBTD2fuBD8t5aJeN-4" vertex="1">
          <mxGeometry x="15.956521739130435" y="3.047858942065491" width="12.158306866717771" height="12.158306866717771" as="geometry" />
        </mxCell>
        <mxCell id="L7ytGBTD2fuBD8t5aJeN-6" value="Domain&lt;br&gt;Infrastructure&lt;br&gt;Resources" style="rounded=0;whiteSpace=wrap;html=1;fontSize=24;strokeWidth=5;align=left;verticalAlign=top;fillColor=#ffffff;" parent="L7ytGBTD2fuBD8t5aJeN-1" vertex="1">
          <mxGeometry width="966" height="109.72292191435767" as="geometry" />
        </mxCell>
        <mxCell id="L7ytGBTD2fuBD8t5aJeN-7" value="Virtual" style="ellipse;shape=cloud;whiteSpace=wrap;html=1;strokeWidth=3;fillColor=#ffffff;fontSize=24;" parent="L7ytGBTD2fuBD8t5aJeN-1" vertex="1">
          <mxGeometry x="82" y="116" width="268" height="114" as="geometry" />
        </mxCell>
        <mxCell id="L7ytGBTD2fuBD8t5aJeN-8" value="Physical" style="ellipse;shape=cloud;whiteSpace=wrap;html=1;strokeWidth=3;fillColor=#ffffff;fontSize=24;" parent="L7ytGBTD2fuBD8t5aJeN-1" vertex="1">
          <mxGeometry x="349" y="116" width="268" height="114" as="geometry" />
        </mxCell>
        <mxCell id="L7ytGBTD2fuBD8t5aJeN-9" value="XaaS" style="ellipse;shape=cloud;whiteSpace=wrap;html=1;strokeWidth=3;fillColor=#ffffff;fontSize=24;" parent="L7ytGBTD2fuBD8t5aJeN-1" vertex="1">
          <mxGeometry x="617" y="121" width="268" height="114" as="geometry" />
        </mxCell>
        <mxCell id="L7ytGBTD2fuBD8t5aJeN-10" value="" style="shape=flexArrow;endArrow=classic;startArrow=classic;html=1;fontSize=24;entryX=0.469;entryY=-0.024;entryDx=0;entryDy=0;entryPerimeter=0;exitX=0.5;exitY=1;exitDx=0;exitDy=0;fillColor=#f5f5f5;strokeColor=#666666;" parent="1" target="L7ytGBTD2fuBD8t5aJeN-6" edge="1">
          <mxGeometry width="50" height="50" relative="1" as="geometry">
            <mxPoint x="523.5" y="512.9099999999999" as="sourcePoint" />
            <mxPoint x="280" y="460" as="targetPoint" />
          </mxGeometry>
        </mxCell>
        <mxCell id="L7ytGBTD2fuBD8t5aJeN-12" value="Intelligence&lt;br&gt;&lt;div&gt;&lt;span&gt;Engine&lt;/span&gt;&lt;/div&gt;" style="rounded=1;whiteSpace=wrap;html=1;gradientColor=#97d077;fillColor=#d5e8d4;strokeColor=#82b366;labelPosition=center;verticalLabelPosition=middle;align=center;verticalAlign=middle;fontSize=23;" parent="1" vertex="1">
          <mxGeometry x="360" y="310" width="130" height="99.19" as="geometry" />
        </mxCell>
        <mxCell id="L7ytGBTD2fuBD8t5aJeN-15" value="&lt;div style=&quot;text-align: center&quot;&gt;&lt;span&gt;Security&lt;/span&gt;&lt;/div&gt;&lt;div style=&quot;text-align: center&quot;&gt;&lt;span&gt;Orchestrator&lt;/span&gt;&lt;/div&gt;" style="rounded=1;whiteSpace=wrap;html=1;gradientColor=#7ea6e0;fillColor=#dae8fc;strokeColor=#6c8ebf;labelPosition=center;verticalLabelPosition=middle;align=left;verticalAlign=middle;fontSize=23;" parent="1" vertex="1">
          <mxGeometry x="516" y="314" width="130" height="99.19" as="geometry" />
        </mxCell>
        <mxCell id="L7ytGBTD2fuBD8t5aJeN-16" value="Policy &amp;amp;SLA&lt;br&gt;Management" style="rounded=1;whiteSpace=wrap;html=1;gradientColor=#ea6b66;fillColor=#f8cecc;strokeColor=#b85450;labelPosition=center;verticalLabelPosition=middle;align=center;verticalAlign=middle;fontSize=23;" parent="1" vertex="1">
          <mxGeometry x="660" y="314" width="130" height="99.19" as="geometry" />
        </mxCell>
        <mxCell id="L7ytGBTD2fuBD8t5aJeN-18" value="" style="group" parent="1" vertex="1" connectable="0">
          <mxGeometry x="80" y="160" width="260" height="260" as="geometry" />
        </mxCell>
        <mxCell id="L7ytGBTD2fuBD8t5aJeN-11" value="Security Analytics&lt;br style=&quot;font-size: 23px&quot;&gt;Engine" style="rounded=1;whiteSpace=wrap;html=1;gradientColor=#97d077;fillColor=#d5e8d4;strokeColor=#82b366;labelPosition=center;verticalLabelPosition=middle;align=center;verticalAlign=top;fontSize=23;" parent="L7ytGBTD2fuBD8t5aJeN-18" vertex="1">
          <mxGeometry y="80" width="260" height="180" as="geometry" />
        </mxCell>
        <mxCell id="MV4Hy2AoagP0RmXen3qM-18" value="Anomaly Detection Service" style="rounded=1;whiteSpace=wrap;html=1;fillColor=#d5e8d4;strokeColor=#82b366;fontSize=16;" parent="L7ytGBTD2fuBD8t5aJeN-18" vertex="1">
          <mxGeometry x="20" y="147" width="110" height="106" as="geometry" />
        </mxCell>
        <mxCell id="MV4Hy2AoagP0RmXen3qM-19" value="RCA Service" style="rounded=1;whiteSpace=wrap;html=1;fillColor=#d5e8d4;strokeColor=#82b366;fontSize=16;" parent="L7ytGBTD2fuBD8t5aJeN-18" vertex="1">
          <mxGeometry x="139.94" y="147" width="110" height="106" as="geometry" />
        </mxCell>
        <mxCell id="L7ytGBTD2fuBD8t5aJeN-36" style="edgeStyle=orthogonalEdgeStyle;rounded=0;orthogonalLoop=1;jettySize=auto;html=1;exitX=0;exitY=0.5;exitDx=0;exitDy=0;exitPerimeter=0;endArrow=none;endFill=0;fontSize=24;" parent="1" source="L7ytGBTD2fuBD8t5aJeN-39" edge="1">
          <mxGeometry relative="1" as="geometry">
            <mxPoint x="407" y="100" as="targetPoint" />
          </mxGeometry>
        </mxCell>
        <mxCell id="L7ytGBTD2fuBD8t5aJeN-37" style="edgeStyle=orthogonalEdgeStyle;rounded=0;orthogonalLoop=1;jettySize=auto;html=1;exitX=1;exitY=0.5;exitDx=0;exitDy=0;exitPerimeter=0;endArrow=none;endFill=0;fontSize=24;" parent="1" source="L7ytGBTD2fuBD8t5aJeN-38" edge="1">
          <mxGeometry relative="1" as="geometry">
            <mxPoint x="456" y="100" as="targetPoint" />
          </mxGeometry>
        </mxCell>
        <mxCell id="L7ytGBTD2fuBD8t5aJeN-38" value="" style="shape=providedRequiredInterface;html=1;verticalLabelPosition=bottom;strokeWidth=3;fillColor=#ffffff;fontSize=24;rotation=-90;" parent="1" vertex="1">
          <mxGeometry x="439" y="240.31000000000003" width="35" height="37" as="geometry" />
        </mxCell>
        <mxCell id="L7ytGBTD2fuBD8t5aJeN-39" value="" style="shape=providedRequiredInterface;html=1;verticalLabelPosition=bottom;strokeWidth=3;fillColor=#ffffff;fontSize=24;rotation=90;" parent="1" vertex="1">
          <mxGeometry x="390" y="245.31000000000003" width="35" height="37" as="geometry" />
        </mxCell>
        <mxCell id="L7ytGBTD2fuBD8t5aJeN-40" style="edgeStyle=orthogonalEdgeStyle;rounded=0;orthogonalLoop=1;jettySize=auto;html=1;entryX=0.771;entryY=0.046;entryDx=0;entryDy=0;endArrow=none;endFill=0;fontSize=24;entryPerimeter=0;" parent="1" source="L7ytGBTD2fuBD8t5aJeN-39" edge="1">
          <mxGeometry relative="1" as="geometry">
            <mxPoint x="406.77700000000004" y="310.00185999999974" as="targetPoint" />
          </mxGeometry>
        </mxCell>
        <mxCell id="L7ytGBTD2fuBD8t5aJeN-41" style="edgeStyle=orthogonalEdgeStyle;rounded=0;orthogonalLoop=1;jettySize=auto;html=1;exitX=0;exitY=0.5;exitDx=0;exitDy=0;exitPerimeter=0;entryX=0.835;entryY=0.017;entryDx=0;entryDy=0;entryPerimeter=0;endArrow=none;endFill=0;fontSize=24;" parent="1" source="L7ytGBTD2fuBD8t5aJeN-38" edge="1">
          <mxGeometry relative="1" as="geometry">
            <mxPoint x="457.145" y="308.8154699999999" as="targetPoint" />
          </mxGeometry>
        </mxCell>
        <mxCell id="L7ytGBTD2fuBD8t5aJeN-42" style="edgeStyle=orthogonalEdgeStyle;rounded=0;orthogonalLoop=1;jettySize=auto;html=1;entryX=0.771;entryY=0.046;entryDx=0;entryDy=0;endArrow=none;endFill=0;fontSize=24;entryPerimeter=0;" parent="1" source="L7ytGBTD2fuBD8t5aJeN-45" edge="1">
          <mxGeometry relative="1" as="geometry">
            <mxPoint x="559.777" y="314.00185999999985" as="targetPoint" />
          </mxGeometry>
        </mxCell>
        <mxCell id="L7ytGBTD2fuBD8t5aJeN-43" style="edgeStyle=orthogonalEdgeStyle;rounded=0;orthogonalLoop=1;jettySize=auto;html=1;exitX=0;exitY=0.5;exitDx=0;exitDy=0;exitPerimeter=0;entryX=0.835;entryY=0.017;entryDx=0;entryDy=0;entryPerimeter=0;endArrow=none;endFill=0;fontSize=24;" parent="1" source="L7ytGBTD2fuBD8t5aJeN-44" edge="1">
          <mxGeometry relative="1" as="geometry">
            <mxPoint x="610.1449999999998" y="312.81547" as="targetPoint" />
          </mxGeometry>
        </mxCell>
        <mxCell id="L7ytGBTD2fuBD8t5aJeN-44" value="" style="shape=providedRequiredInterface;html=1;verticalLabelPosition=bottom;strokeWidth=3;fillColor=#ffffff;fontSize=24;rotation=-90;" parent="1" vertex="1">
          <mxGeometry x="592" y="244.31000000000003" width="35" height="37" as="geometry" />
        </mxCell>
        <mxCell id="L7ytGBTD2fuBD8t5aJeN-45" value="" style="shape=providedRequiredInterface;html=1;verticalLabelPosition=bottom;strokeWidth=3;fillColor=#ffffff;fontSize=24;rotation=90;" parent="1" vertex="1">
          <mxGeometry x="543" y="249.31000000000003" width="35" height="37" as="geometry" />
        </mxCell>
        <mxCell id="L7ytGBTD2fuBD8t5aJeN-46" style="edgeStyle=orthogonalEdgeStyle;rounded=0;orthogonalLoop=1;jettySize=auto;html=1;exitX=0;exitY=0.5;exitDx=0;exitDy=0;exitPerimeter=0;endArrow=none;endFill=0;fontSize=24;" parent="1" source="L7ytGBTD2fuBD8t5aJeN-45" edge="1">
          <mxGeometry relative="1" as="geometry">
            <mxPoint x="559.9999999999998" y="104" as="targetPoint" />
          </mxGeometry>
        </mxCell>
        <mxCell id="L7ytGBTD2fuBD8t5aJeN-47" style="edgeStyle=orthogonalEdgeStyle;rounded=0;orthogonalLoop=1;jettySize=auto;html=1;exitX=1;exitY=0.5;exitDx=0;exitDy=0;exitPerimeter=0;endArrow=none;endFill=0;fontSize=24;" parent="1" source="L7ytGBTD2fuBD8t5aJeN-44" edge="1">
          <mxGeometry relative="1" as="geometry">
            <mxPoint x="609.0000000000002" y="104" as="targetPoint" />
          </mxGeometry>
        </mxCell>
        <mxCell id="L7ytGBTD2fuBD8t5aJeN-48" style="edgeStyle=orthogonalEdgeStyle;rounded=0;orthogonalLoop=1;jettySize=auto;html=1;entryX=0.771;entryY=0.046;entryDx=0;entryDy=0;endArrow=none;endFill=0;fontSize=24;entryPerimeter=0;" parent="1" source="L7ytGBTD2fuBD8t5aJeN-51" edge="1">
          <mxGeometry relative="1" as="geometry">
            <mxPoint x="699.777" y="310.00185999999985" as="targetPoint" />
          </mxGeometry>
        </mxCell>
        <mxCell id="L7ytGBTD2fuBD8t5aJeN-49" style="edgeStyle=orthogonalEdgeStyle;rounded=0;orthogonalLoop=1;jettySize=auto;html=1;exitX=0;exitY=0.5;exitDx=0;exitDy=0;exitPerimeter=0;entryX=0.835;entryY=0.017;entryDx=0;entryDy=0;entryPerimeter=0;endArrow=none;endFill=0;fontSize=24;" parent="1" source="L7ytGBTD2fuBD8t5aJeN-50" edge="1">
          <mxGeometry relative="1" as="geometry">
            <mxPoint x="750.1449999999995" y="308.81547" as="targetPoint" />
          </mxGeometry>
        </mxCell>
        <mxCell id="L7ytGBTD2fuBD8t5aJeN-50" value="" style="shape=providedRequiredInterface;html=1;verticalLabelPosition=bottom;strokeWidth=3;fillColor=#ffffff;fontSize=24;rotation=-90;" parent="1" vertex="1">
          <mxGeometry x="732" y="240.31000000000003" width="35" height="37" as="geometry" />
        </mxCell>
        <mxCell id="L7ytGBTD2fuBD8t5aJeN-51" value="" style="shape=providedRequiredInterface;html=1;verticalLabelPosition=bottom;strokeWidth=3;fillColor=#ffffff;fontSize=24;rotation=90;" parent="1" vertex="1">
          <mxGeometry x="683" y="245.31000000000006" width="35" height="37" as="geometry" />
        </mxCell>
        <mxCell id="L7ytGBTD2fuBD8t5aJeN-52" style="edgeStyle=orthogonalEdgeStyle;rounded=0;orthogonalLoop=1;jettySize=auto;html=1;exitX=0;exitY=0.5;exitDx=0;exitDy=0;exitPerimeter=0;endArrow=none;endFill=0;fontSize=24;" parent="1" source="L7ytGBTD2fuBD8t5aJeN-51" edge="1">
          <mxGeometry relative="1" as="geometry">
            <mxPoint x="700" y="100" as="targetPoint" />
          </mxGeometry>
        </mxCell>
        <mxCell id="L7ytGBTD2fuBD8t5aJeN-53" style="edgeStyle=orthogonalEdgeStyle;rounded=0;orthogonalLoop=1;jettySize=auto;html=1;exitX=1;exitY=0.5;exitDx=0;exitDy=0;exitPerimeter=0;endArrow=none;endFill=0;fontSize=24;" parent="1" source="L7ytGBTD2fuBD8t5aJeN-50" edge="1">
          <mxGeometry relative="1" as="geometry">
            <mxPoint x="749" y="100" as="targetPoint" />
          </mxGeometry>
        </mxCell>
        <mxCell id="L7ytGBTD2fuBD8t5aJeN-54" style="edgeStyle=orthogonalEdgeStyle;rounded=0;orthogonalLoop=1;jettySize=auto;html=1;entryX=0.771;entryY=0.046;entryDx=0;entryDy=0;endArrow=none;endFill=0;fontSize=24;entryPerimeter=0;" parent="1" source="L7ytGBTD2fuBD8t5aJeN-57" edge="1">
          <mxGeometry relative="1" as="geometry">
            <mxPoint x="272.77700000000004" y="245.31185999999985" as="targetPoint" />
          </mxGeometry>
        </mxCell>
        <mxCell id="L7ytGBTD2fuBD8t5aJeN-55" style="edgeStyle=orthogonalEdgeStyle;rounded=0;orthogonalLoop=1;jettySize=auto;html=1;exitX=0;exitY=0.5;exitDx=0;exitDy=0;exitPerimeter=0;entryX=0.835;entryY=0.017;entryDx=0;entryDy=0;entryPerimeter=0;endArrow=none;endFill=0;fontSize=24;" parent="1" source="L7ytGBTD2fuBD8t5aJeN-56" edge="1">
          <mxGeometry relative="1" as="geometry">
            <mxPoint x="323.1449999999995" y="244.12547" as="targetPoint" />
          </mxGeometry>
        </mxCell>
        <mxCell id="L7ytGBTD2fuBD8t5aJeN-56" value="" style="shape=providedRequiredInterface;html=1;verticalLabelPosition=bottom;strokeWidth=3;fillColor=#ffffff;fontSize=24;rotation=-90;" parent="1" vertex="1">
          <mxGeometry x="305" y="175.62000000000003" width="35" height="37" as="geometry" />
        </mxCell>
        <mxCell id="L7ytGBTD2fuBD8t5aJeN-57" value="" style="shape=providedRequiredInterface;html=1;verticalLabelPosition=bottom;strokeWidth=3;fillColor=#ffffff;fontSize=24;rotation=90;" parent="1" vertex="1">
          <mxGeometry x="256" y="180.62000000000006" width="35" height="37" as="geometry" />
        </mxCell>
        <mxCell id="L7ytGBTD2fuBD8t5aJeN-58" style="edgeStyle=orthogonalEdgeStyle;rounded=0;orthogonalLoop=1;jettySize=auto;html=1;exitX=0;exitY=0.5;exitDx=0;exitDy=0;exitPerimeter=0;endArrow=none;endFill=0;fontSize=24;" parent="1" source="L7ytGBTD2fuBD8t5aJeN-57" edge="1">
          <mxGeometry relative="1" as="geometry">
            <mxPoint x="273" y="100" as="targetPoint" />
          </mxGeometry>
        </mxCell>
        <mxCell id="L7ytGBTD2fuBD8t5aJeN-59" style="edgeStyle=orthogonalEdgeStyle;rounded=0;orthogonalLoop=1;jettySize=auto;html=1;exitX=1;exitY=0.5;exitDx=0;exitDy=0;exitPerimeter=0;endArrow=none;endFill=0;fontSize=24;" parent="1" source="L7ytGBTD2fuBD8t5aJeN-56" edge="1">
          <mxGeometry relative="1" as="geometry">
            <mxPoint x="322" y="100" as="targetPoint" />
          </mxGeometry>
        </mxCell>
        <mxCell id="Y2rbPJFugSSyYV6QfgTF-6" style="edgeStyle=orthogonalEdgeStyle;rounded=0;orthogonalLoop=1;jettySize=auto;html=1;exitX=1;exitY=0.5;exitDx=0;exitDy=0;exitPerimeter=0;entryX=1;entryY=0.75;entryDx=0;entryDy=0;endArrow=none;endFill=0;" edge="1" parent="1" source="Y2rbPJFugSSyYV6QfgTF-1" target="MV4Hy2AoagP0RmXen3qM-7">
          <mxGeometry relative="1" as="geometry" />
        </mxCell>
        <mxCell id="Y2rbPJFugSSyYV6QfgTF-1" value="" style="shape=providedRequiredInterface;html=1;verticalLabelPosition=bottom;strokeWidth=3;fillColor=#ffffff;fontSize=24;rotation=-180;" vertex="1" parent="1">
          <mxGeometry x="917" y="78.11000000000007" width="35" height="37" as="geometry" />
        </mxCell>
        <mxCell id="Y2rbPJFugSSyYV6QfgTF-5" style="edgeStyle=orthogonalEdgeStyle;rounded=0;orthogonalLoop=1;jettySize=auto;html=1;exitX=0;exitY=0.5;exitDx=0;exitDy=0;exitPerimeter=0;entryX=1;entryY=0.25;entryDx=0;entryDy=0;endArrow=none;endFill=0;" edge="1" parent="1" source="Y2rbPJFugSSyYV6QfgTF-2" target="MV4Hy2AoagP0RmXen3qM-7">
          <mxGeometry relative="1" as="geometry" />
        </mxCell>
        <mxCell id="Y2rbPJFugSSyYV6QfgTF-2" value="" style="shape=providedRequiredInterface;html=1;verticalLabelPosition=bottom;strokeWidth=3;fillColor=#ffffff;fontSize=24;rotation=0;" vertex="1" parent="1">
          <mxGeometry x="917" y="25.800000000000068" width="35" height="37" as="geometry" />
        </mxCell>
      </root>
    </mxGraphModel>
  </diagram>
  <diagram id="c6sg14IkiNQq7ziwsip3" name="ZSM Mapping">
    <mxGraphModel dx="1770" dy="1919" grid="1" gridSize="10" guides="1" tooltips="1" connect="1" arrows="1" fold="1" page="1" pageScale="1" pageWidth="1169" pageHeight="827" math="0" shadow="0">
      <root>
        <mxCell id="dCaCou-QPLY2ix1EQ3Cx-0" />
        <mxCell id="dCaCou-QPLY2ix1EQ3Cx-1" parent="dCaCou-QPLY2ix1EQ3Cx-0" />
        <mxCell id="dCaCou-QPLY2ix1EQ3Cx-22" value="&lt;b&gt;E2E&lt;/b&gt;&lt;br&gt;Service&lt;br&gt;Management&lt;br&gt;Domain" style="rounded=0;whiteSpace=wrap;html=1;fontSize=24;fillColor=#ffffff;strokeWidth=5;align=left;verticalAlign=top;" parent="dCaCou-QPLY2ix1EQ3Cx-1" vertex="1">
          <mxGeometry x="58" y="-378" width="1111" height="438" as="geometry" />
        </mxCell>
        <mxCell id="dCaCou-QPLY2ix1EQ3Cx-2" value="&lt;font style=&quot;font-size: 23px&quot;&gt;E2E&amp;nbsp;&lt;br&gt;Management Functions&lt;/font&gt;" style="rounded=1;whiteSpace=wrap;html=1;" parent="dCaCou-QPLY2ix1EQ3Cx-1" vertex="1">
          <mxGeometry x="815" y="-376" width="256" height="70" as="geometry" />
        </mxCell>
        <mxCell id="dCaCou-QPLY2ix1EQ3Cx-97" style="edgeStyle=orthogonalEdgeStyle;rounded=0;orthogonalLoop=1;jettySize=auto;html=1;exitX=0;exitY=0.5;exitDx=0;exitDy=0;exitPerimeter=0;entryX=0;entryY=0.5;entryDx=0;entryDy=0;entryPerimeter=0;endArrow=none;endFill=0;fontSize=24;" parent="dCaCou-QPLY2ix1EQ3Cx-1" source="dCaCou-QPLY2ix1EQ3Cx-14" target="dCaCou-QPLY2ix1EQ3Cx-95" edge="1">
          <mxGeometry relative="1" as="geometry" />
        </mxCell>
        <mxCell id="dCaCou-QPLY2ix1EQ3Cx-98" style="edgeStyle=orthogonalEdgeStyle;rounded=0;orthogonalLoop=1;jettySize=auto;html=1;exitX=0.5;exitY=1;exitDx=0;exitDy=0;exitPerimeter=0;entryX=1;entryY=0.5;entryDx=0;entryDy=0;entryPerimeter=0;endArrow=none;endFill=0;fontSize=24;" parent="dCaCou-QPLY2ix1EQ3Cx-1" source="dCaCou-QPLY2ix1EQ3Cx-14" target="dCaCou-QPLY2ix1EQ3Cx-96" edge="1">
          <mxGeometry relative="1" as="geometry" />
        </mxCell>
        <mxCell id="dCaCou-QPLY2ix1EQ3Cx-14" value="Data&lt;br&gt;Services" style="strokeWidth=2;html=1;shape=mxgraph.flowchart.database;whiteSpace=wrap;fontSize=24;verticalAlign=bottom;labelPosition=center;verticalLabelPosition=top;align=center;" parent="dCaCou-QPLY2ix1EQ3Cx-1" vertex="1">
          <mxGeometry x="1064" y="-273" width="95" height="70" as="geometry" />
        </mxCell>
        <mxCell id="dCaCou-QPLY2ix1EQ3Cx-16" value="" style="group;fontSize=24;" parent="dCaCou-QPLY2ix1EQ3Cx-1" vertex="1" connectable="0">
          <mxGeometry x="164" y="210" width="920" height="70" as="geometry" />
        </mxCell>
        <mxCell id="dCaCou-QPLY2ix1EQ3Cx-17" value="&lt;font style=&quot;font-size: 33px&quot;&gt;&lt;b&gt;Cross/Inter Domain&lt;/b&gt; Integration Fabric&lt;/font&gt;" style="rounded=1;whiteSpace=wrap;html=1;" parent="dCaCou-QPLY2ix1EQ3Cx-16" vertex="1">
          <mxGeometry width="920" height="70" as="geometry" />
        </mxCell>
        <mxCell id="dCaCou-QPLY2ix1EQ3Cx-18" value="" style="aspect=fixed;html=1;points=[];align=center;image;fontSize=12;image=img/lib/mscae/Service_Fabric.svg;" parent="dCaCou-QPLY2ix1EQ3Cx-16" vertex="1">
          <mxGeometry x="20" y="10" width="50" height="50" as="geometry" />
        </mxCell>
        <mxCell id="dCaCou-QPLY2ix1EQ3Cx-79" style="edgeStyle=orthogonalEdgeStyle;rounded=0;orthogonalLoop=1;jettySize=auto;html=1;exitX=0.75;exitY=1;exitDx=0;exitDy=0;entryX=0;entryY=0.5;entryDx=0;entryDy=0;entryPerimeter=0;endArrow=none;endFill=0;fontSize=24;" parent="dCaCou-QPLY2ix1EQ3Cx-1" source="dCaCou-QPLY2ix1EQ3Cx-26" target="dCaCou-QPLY2ix1EQ3Cx-73" edge="1">
          <mxGeometry relative="1" as="geometry" />
        </mxCell>
        <mxCell id="dCaCou-QPLY2ix1EQ3Cx-26" value="" style="rounded=1;whiteSpace=wrap;html=1;" parent="dCaCou-QPLY2ix1EQ3Cx-1" vertex="1">
          <mxGeometry x="230" y="-376" width="585" height="96" as="geometry" />
        </mxCell>
        <mxCell id="dCaCou-QPLY2ix1EQ3Cx-31" value="" style="group" parent="dCaCou-QPLY2ix1EQ3Cx-1" vertex="1" connectable="0">
          <mxGeometry x="50" y="490" width="1013" height="232" as="geometry" />
        </mxCell>
        <mxCell id="dCaCou-QPLY2ix1EQ3Cx-29" value="" style="rounded=0;whiteSpace=wrap;html=1;fontSize=24;fillColor=none;strokeWidth=5;align=left;verticalAlign=top;" parent="dCaCou-QPLY2ix1EQ3Cx-31" vertex="1">
          <mxGeometry x="44" y="21.622166246851386" width="969" height="210.3778337531486" as="geometry" />
        </mxCell>
        <mxCell id="dCaCou-QPLY2ix1EQ3Cx-27" value="" style="rounded=0;whiteSpace=wrap;html=1;fontSize=24;fillColor=#ffffff;strokeWidth=5;align=left;verticalAlign=top;" parent="dCaCou-QPLY2ix1EQ3Cx-31" vertex="1">
          <mxGeometry x="22" y="12.856423173803526" width="966" height="210.3778337531486" as="geometry" />
        </mxCell>
        <mxCell id="dCaCou-QPLY2ix1EQ3Cx-23" value="" style="group;fontSize=24;" parent="dCaCou-QPLY2ix1EQ3Cx-31" vertex="1" connectable="0">
          <mxGeometry x="186" y="29.219143576826195" width="734" height="40.90680100755667" as="geometry" />
        </mxCell>
        <mxCell id="dCaCou-QPLY2ix1EQ3Cx-25" value="" style="aspect=fixed;html=1;points=[];align=center;image;fontSize=12;image=img/lib/mscae/Service_Fabric.svg;" parent="dCaCou-QPLY2ix1EQ3Cx-23" vertex="1">
          <mxGeometry x="15.956521739130435" y="5.843828715365239" width="23.311794984120024" height="23.311794984120024" as="geometry" />
        </mxCell>
        <mxCell id="dCaCou-QPLY2ix1EQ3Cx-28" value="Management&lt;br&gt;Domain" style="rounded=0;whiteSpace=wrap;html=1;fontSize=24;strokeWidth=5;align=left;verticalAlign=top;fillColor=#ffffff;" parent="dCaCou-QPLY2ix1EQ3Cx-31" vertex="1">
          <mxGeometry width="966" height="210.3778337531486" as="geometry" />
        </mxCell>
        <mxCell id="dCaCou-QPLY2ix1EQ3Cx-24" value="&lt;font style=&quot;font-size: 33px&quot;&gt;&lt;b&gt;Domain&lt;/b&gt; Integration Fabric&lt;/font&gt;" style="rounded=1;whiteSpace=wrap;html=1;" parent="dCaCou-QPLY2ix1EQ3Cx-31" vertex="1">
          <mxGeometry x="320" y="7.6" width="562" height="40.91" as="geometry" />
        </mxCell>
        <mxCell id="dCaCou-QPLY2ix1EQ3Cx-35" value="" style="edgeStyle=orthogonalEdgeStyle;rounded=0;orthogonalLoop=1;jettySize=auto;html=1;fontSize=24;entryX=1;entryY=0.5;entryDx=0;entryDy=0;" parent="dCaCou-QPLY2ix1EQ3Cx-31" source="dCaCou-QPLY2ix1EQ3Cx-32" target="dCaCou-QPLY2ix1EQ3Cx-24" edge="1">
          <mxGeometry relative="1" as="geometry" />
        </mxCell>
        <mxCell id="dCaCou-QPLY2ix1EQ3Cx-32" value="Data&lt;br&gt;Services" style="strokeWidth=2;html=1;shape=mxgraph.flowchart.database;whiteSpace=wrap;fontSize=24;verticalAlign=top;labelPosition=center;verticalLabelPosition=bottom;align=center;" parent="dCaCou-QPLY2ix1EQ3Cx-31" vertex="1">
          <mxGeometry x="854" y="80.06045340050377" width="95" height="40.90680100755667" as="geometry" />
        </mxCell>
        <mxCell id="dCaCou-QPLY2ix1EQ3Cx-33" value="&lt;font style=&quot;font-size: 32px&quot;&gt;Management Functions&lt;/font&gt;" style="rounded=1;whiteSpace=wrap;html=1;" parent="dCaCou-QPLY2ix1EQ3Cx-31" vertex="1">
          <mxGeometry x="60" y="152" width="787" height="40.91" as="geometry" />
        </mxCell>
        <mxCell id="dCaCou-QPLY2ix1EQ3Cx-67" value="" style="aspect=fixed;html=1;points=[];align=center;image;fontSize=12;image=img/lib/mscae/Service_Fabric.svg;" parent="dCaCou-QPLY2ix1EQ3Cx-31" vertex="1">
          <mxGeometry x="329.99652173913046" y="8.620000000000022" width="39.89130434782608" height="39.89130434782608" as="geometry" />
        </mxCell>
        <mxCell id="dCaCou-QPLY2ix1EQ3Cx-103" style="edgeStyle=orthogonalEdgeStyle;rounded=0;orthogonalLoop=1;jettySize=auto;html=1;entryX=0.771;entryY=0.046;entryDx=0;entryDy=0;endArrow=none;endFill=0;fontSize=24;entryPerimeter=0;" parent="dCaCou-QPLY2ix1EQ3Cx-31" source="dCaCou-QPLY2ix1EQ3Cx-101" target="dCaCou-QPLY2ix1EQ3Cx-33" edge="1">
          <mxGeometry relative="1" as="geometry" />
        </mxCell>
        <mxCell id="dCaCou-QPLY2ix1EQ3Cx-105" style="edgeStyle=orthogonalEdgeStyle;rounded=0;orthogonalLoop=1;jettySize=auto;html=1;exitX=0;exitY=0.5;exitDx=0;exitDy=0;exitPerimeter=0;entryX=0.615;entryY=0.988;entryDx=0;entryDy=0;entryPerimeter=0;endArrow=none;endFill=0;fontSize=24;" parent="dCaCou-QPLY2ix1EQ3Cx-31" source="dCaCou-QPLY2ix1EQ3Cx-101" target="dCaCou-QPLY2ix1EQ3Cx-24" edge="1">
          <mxGeometry relative="1" as="geometry" />
        </mxCell>
        <mxCell id="dCaCou-QPLY2ix1EQ3Cx-101" value="" style="shape=providedRequiredInterface;html=1;verticalLabelPosition=bottom;strokeWidth=3;fillColor=#ffffff;fontSize=24;rotation=90;" parent="dCaCou-QPLY2ix1EQ3Cx-31" vertex="1">
          <mxGeometry x="650" y="89.19000000000005" width="35" height="37" as="geometry" />
        </mxCell>
        <mxCell id="dCaCou-QPLY2ix1EQ3Cx-104" style="edgeStyle=orthogonalEdgeStyle;rounded=0;orthogonalLoop=1;jettySize=auto;html=1;exitX=0;exitY=0.5;exitDx=0;exitDy=0;exitPerimeter=0;entryX=0.835;entryY=0.017;entryDx=0;entryDy=0;entryPerimeter=0;endArrow=none;endFill=0;fontSize=24;" parent="dCaCou-QPLY2ix1EQ3Cx-31" source="dCaCou-QPLY2ix1EQ3Cx-102" target="dCaCou-QPLY2ix1EQ3Cx-33" edge="1">
          <mxGeometry relative="1" as="geometry" />
        </mxCell>
        <mxCell id="dCaCou-QPLY2ix1EQ3Cx-106" style="edgeStyle=orthogonalEdgeStyle;rounded=0;orthogonalLoop=1;jettySize=auto;html=1;exitX=1;exitY=0.5;exitDx=0;exitDy=0;exitPerimeter=0;entryX=0.701;entryY=1.016;entryDx=0;entryDy=0;entryPerimeter=0;endArrow=none;endFill=0;fontSize=24;" parent="dCaCou-QPLY2ix1EQ3Cx-31" source="dCaCou-QPLY2ix1EQ3Cx-102" target="dCaCou-QPLY2ix1EQ3Cx-24" edge="1">
          <mxGeometry relative="1" as="geometry" />
        </mxCell>
        <mxCell id="dCaCou-QPLY2ix1EQ3Cx-102" value="" style="shape=providedRequiredInterface;html=1;verticalLabelPosition=bottom;strokeWidth=3;fillColor=#ffffff;fontSize=24;rotation=-90;" parent="dCaCou-QPLY2ix1EQ3Cx-31" vertex="1">
          <mxGeometry x="699" y="84.19000000000005" width="35" height="37" as="geometry" />
        </mxCell>
        <mxCell id="dCaCou-QPLY2ix1EQ3Cx-39" value="" style="group" parent="dCaCou-QPLY2ix1EQ3Cx-1" vertex="1" connectable="0">
          <mxGeometry x="35" y="-490" width="1130" height="90" as="geometry" />
        </mxCell>
        <mxCell id="dCaCou-QPLY2ix1EQ3Cx-36" value="&lt;font style=&quot;font-size: 21px&quot;&gt;ZSM Framework consumers&lt;/font&gt;" style="rounded=1;whiteSpace=wrap;html=1;" parent="dCaCou-QPLY2ix1EQ3Cx-39" vertex="1">
          <mxGeometry width="1110" height="70" as="geometry" />
        </mxCell>
        <mxCell id="dCaCou-QPLY2ix1EQ3Cx-37" value="&lt;font style=&quot;font-size: 21px&quot;&gt;ZSM Framework consumers&lt;/font&gt;" style="rounded=1;whiteSpace=wrap;html=1;" parent="dCaCou-QPLY2ix1EQ3Cx-39" vertex="1">
          <mxGeometry x="10" y="10" width="1110" height="70" as="geometry" />
        </mxCell>
        <mxCell id="dCaCou-QPLY2ix1EQ3Cx-38" value="&lt;font style=&quot;font-size: 21px&quot;&gt;ZSM Framework consumers&lt;/font&gt;" style="rounded=1;whiteSpace=wrap;html=1;" parent="dCaCou-QPLY2ix1EQ3Cx-39" vertex="1">
          <mxGeometry x="20" y="20" width="1110" height="70" as="geometry" />
        </mxCell>
        <mxCell id="-UyIou3aFhHUhTqj6I9_-0" value="OTT" style="rounded=1;whiteSpace=wrap;html=1;strokeWidth=3;fillColor=#e6d0de;fontSize=24;strokeColor=#996185;gradientColor=#d5739d;" parent="dCaCou-QPLY2ix1EQ3Cx-39" vertex="1">
          <mxGeometry x="955" y="25" width="150" height="60" as="geometry" />
        </mxCell>
        <mxCell id="-UyIou3aFhHUhTqj6I9_-1" value="Other Operators" style="rounded=1;whiteSpace=wrap;html=1;strokeWidth=3;fillColor=#e6d0de;fontSize=24;strokeColor=#996185;gradientColor=#d5739d;" parent="dCaCou-QPLY2ix1EQ3Cx-39" vertex="1">
          <mxGeometry x="785" y="25" width="150" height="60" as="geometry" />
        </mxCell>
        <mxCell id="dCaCou-QPLY2ix1EQ3Cx-40" style="edgeStyle=orthogonalEdgeStyle;rounded=0;orthogonalLoop=1;jettySize=auto;html=1;entryX=0;entryY=0.5;entryDx=0;entryDy=0;fontSize=24;entryPerimeter=0;endArrow=none;endFill=0;exitX=0;exitY=1;exitDx=0;exitDy=0;" parent="dCaCou-QPLY2ix1EQ3Cx-1" source="dCaCou-QPLY2ix1EQ3Cx-38" target="dCaCou-QPLY2ix1EQ3Cx-45" edge="1">
          <mxGeometry relative="1" as="geometry">
            <Array as="points">
              <mxPoint x="35" y="-320" />
              <mxPoint x="35" y="245" />
            </Array>
          </mxGeometry>
        </mxCell>
        <mxCell id="dCaCou-QPLY2ix1EQ3Cx-46" value="" style="edgeStyle=orthogonalEdgeStyle;rounded=0;orthogonalLoop=1;jettySize=auto;html=1;fontSize=24;entryX=0;entryY=0.5;entryDx=0;entryDy=0;endArrow=none;endFill=0;" parent="dCaCou-QPLY2ix1EQ3Cx-1" source="dCaCou-QPLY2ix1EQ3Cx-45" target="dCaCou-QPLY2ix1EQ3Cx-17" edge="1">
          <mxGeometry relative="1" as="geometry">
            <mxPoint x="160" y="234" as="targetPoint" />
          </mxGeometry>
        </mxCell>
        <mxCell id="dCaCou-QPLY2ix1EQ3Cx-45" value="" style="shape=providedRequiredInterface;html=1;verticalLabelPosition=bottom;strokeWidth=3;fillColor=#ffffff;fontSize=24;" parent="dCaCou-QPLY2ix1EQ3Cx-1" vertex="1">
          <mxGeometry x="80" y="226.5" width="35" height="37" as="geometry" />
        </mxCell>
        <mxCell id="dCaCou-QPLY2ix1EQ3Cx-49" style="edgeStyle=orthogonalEdgeStyle;rounded=0;orthogonalLoop=1;jettySize=auto;html=1;entryX=1;entryY=0.5;entryDx=0;entryDy=0;fontSize=24;exitX=1;exitY=0.5;exitDx=0;exitDy=0;exitPerimeter=0;endArrow=none;endFill=0;" parent="dCaCou-QPLY2ix1EQ3Cx-1" source="dCaCou-QPLY2ix1EQ3Cx-50" target="dCaCou-QPLY2ix1EQ3Cx-17" edge="1">
          <mxGeometry relative="1" as="geometry" />
        </mxCell>
        <mxCell id="dCaCou-QPLY2ix1EQ3Cx-48" value="Cross Domain Data&lt;br&gt;Services" style="strokeWidth=2;html=1;shape=mxgraph.flowchart.database;whiteSpace=wrap;fontSize=24;verticalAlign=top;labelPosition=center;verticalLabelPosition=bottom;align=center;" parent="dCaCou-QPLY2ix1EQ3Cx-1" vertex="1">
          <mxGeometry x="1121" y="318" width="95" height="70" as="geometry" />
        </mxCell>
        <mxCell id="dCaCou-QPLY2ix1EQ3Cx-50" value="" style="shape=providedRequiredInterface;html=1;verticalLabelPosition=bottom;strokeWidth=3;fillColor=#ffffff;fontSize=24;rotation=-90;" parent="dCaCou-QPLY2ix1EQ3Cx-1" vertex="1">
          <mxGeometry x="1221" y="280" width="35" height="37" as="geometry" />
        </mxCell>
        <mxCell id="dCaCou-QPLY2ix1EQ3Cx-51" style="edgeStyle=orthogonalEdgeStyle;rounded=0;orthogonalLoop=1;jettySize=auto;html=1;entryX=0;entryY=0.5;entryDx=0;entryDy=0;fontSize=24;entryPerimeter=0;endArrow=none;endFill=0;" parent="dCaCou-QPLY2ix1EQ3Cx-1" source="dCaCou-QPLY2ix1EQ3Cx-48" target="dCaCou-QPLY2ix1EQ3Cx-50" edge="1">
          <mxGeometry relative="1" as="geometry">
            <mxPoint x="1123.4705882352941" y="283" as="sourcePoint" />
            <mxPoint x="1085" y="234" as="targetPoint" />
          </mxGeometry>
        </mxCell>
        <mxCell id="dCaCou-QPLY2ix1EQ3Cx-53" style="edgeStyle=orthogonalEdgeStyle;rounded=0;orthogonalLoop=1;jettySize=auto;html=1;entryX=0;entryY=0.5;entryDx=0;entryDy=0;entryPerimeter=0;fontSize=24;exitX=1;exitY=0.5;exitDx=0;exitDy=0;exitPerimeter=0;endArrow=none;endFill=0;" parent="dCaCou-QPLY2ix1EQ3Cx-1" source="dCaCou-QPLY2ix1EQ3Cx-52" target="dCaCou-QPLY2ix1EQ3Cx-48" edge="1">
          <mxGeometry relative="1" as="geometry">
            <Array as="points">
              <mxPoint x="1099" y="348" />
              <mxPoint x="1121" y="348" />
            </Array>
          </mxGeometry>
        </mxCell>
        <mxCell id="dCaCou-QPLY2ix1EQ3Cx-54" style="edgeStyle=orthogonalEdgeStyle;rounded=0;orthogonalLoop=1;jettySize=auto;html=1;entryX=1;entryY=1;entryDx=0;entryDy=0;fontSize=24;endArrow=none;endFill=0;" parent="dCaCou-QPLY2ix1EQ3Cx-1" source="dCaCou-QPLY2ix1EQ3Cx-52" target="dCaCou-QPLY2ix1EQ3Cx-17" edge="1">
          <mxGeometry relative="1" as="geometry" />
        </mxCell>
        <mxCell id="dCaCou-QPLY2ix1EQ3Cx-52" value="" style="shape=providedRequiredInterface;html=1;verticalLabelPosition=bottom;strokeWidth=3;fillColor=#ffffff;fontSize=24;rotation=90;" parent="dCaCou-QPLY2ix1EQ3Cx-1" vertex="1">
          <mxGeometry x="1082" y="285" width="35" height="37" as="geometry" />
        </mxCell>
        <mxCell id="dCaCou-QPLY2ix1EQ3Cx-55" value="" style="group" parent="dCaCou-QPLY2ix1EQ3Cx-1" vertex="1" connectable="0">
          <mxGeometry x="50" y="742" width="1013" height="230" as="geometry" />
        </mxCell>
        <mxCell id="dCaCou-QPLY2ix1EQ3Cx-56" value="" style="rounded=0;whiteSpace=wrap;html=1;fontSize=24;fillColor=none;strokeWidth=5;align=left;verticalAlign=top;" parent="dCaCou-QPLY2ix1EQ3Cx-55" vertex="1">
          <mxGeometry x="44" y="11.277078085642318" width="969" height="109.72292191435767" as="geometry" />
        </mxCell>
        <mxCell id="dCaCou-QPLY2ix1EQ3Cx-57" value="" style="rounded=0;whiteSpace=wrap;html=1;fontSize=24;fillColor=#ffffff;strokeWidth=5;align=left;verticalAlign=top;" parent="dCaCou-QPLY2ix1EQ3Cx-55" vertex="1">
          <mxGeometry x="22" y="6.7052896725440805" width="966" height="109.72292191435767" as="geometry" />
        </mxCell>
        <mxCell id="dCaCou-QPLY2ix1EQ3Cx-58" value="" style="group;fontSize=24;" parent="dCaCou-QPLY2ix1EQ3Cx-55" vertex="1" connectable="0">
          <mxGeometry x="186" y="15.239294710327455" width="734" height="21.335012594458437" as="geometry" />
        </mxCell>
        <mxCell id="dCaCou-QPLY2ix1EQ3Cx-59" value="" style="aspect=fixed;html=1;points=[];align=center;image;fontSize=12;image=img/lib/mscae/Service_Fabric.svg;" parent="dCaCou-QPLY2ix1EQ3Cx-58" vertex="1">
          <mxGeometry x="15.956521739130435" y="3.047858942065491" width="12.158306866717771" height="12.158306866717771" as="geometry" />
        </mxCell>
        <mxCell id="dCaCou-QPLY2ix1EQ3Cx-60" value="Domain&lt;br&gt;Infrastructure&lt;br&gt;Resources" style="rounded=0;whiteSpace=wrap;html=1;fontSize=24;strokeWidth=5;align=left;verticalAlign=top;fillColor=#ffffff;" parent="dCaCou-QPLY2ix1EQ3Cx-55" vertex="1">
          <mxGeometry width="966" height="109.72292191435767" as="geometry" />
        </mxCell>
        <mxCell id="dCaCou-QPLY2ix1EQ3Cx-134" value="Virtual" style="ellipse;shape=cloud;whiteSpace=wrap;html=1;strokeWidth=3;fillColor=#ffffff;fontSize=24;" parent="dCaCou-QPLY2ix1EQ3Cx-55" vertex="1">
          <mxGeometry x="82" y="116" width="268" height="114" as="geometry" />
        </mxCell>
        <mxCell id="dCaCou-QPLY2ix1EQ3Cx-135" value="Physical" style="ellipse;shape=cloud;whiteSpace=wrap;html=1;strokeWidth=3;fillColor=#ffffff;fontSize=24;" parent="dCaCou-QPLY2ix1EQ3Cx-55" vertex="1">
          <mxGeometry x="349" y="116" width="268" height="114" as="geometry" />
        </mxCell>
        <mxCell id="dCaCou-QPLY2ix1EQ3Cx-144" value="XaaS" style="ellipse;shape=cloud;whiteSpace=wrap;html=1;strokeWidth=3;fillColor=#ffffff;fontSize=24;" parent="dCaCou-QPLY2ix1EQ3Cx-55" vertex="1">
          <mxGeometry x="617" y="121" width="268" height="114" as="geometry" />
        </mxCell>
        <mxCell id="dCaCou-QPLY2ix1EQ3Cx-7" value="&lt;font style=&quot;font-size: 33px&quot;&gt;&lt;b&gt;Domain&lt;/b&gt; Integration Fabric&lt;/font&gt;" style="rounded=1;whiteSpace=wrap;html=1;" parent="dCaCou-QPLY2ix1EQ3Cx-1" vertex="1">
          <mxGeometry x="255" y="-50" width="734" height="70" as="geometry" />
        </mxCell>
        <mxCell id="dCaCou-QPLY2ix1EQ3Cx-4" value="" style="aspect=fixed;html=1;points=[];align=center;image;fontSize=12;image=img/lib/mscae/Service_Fabric.svg;" parent="dCaCou-QPLY2ix1EQ3Cx-1" vertex="1">
          <mxGeometry x="267.11652173913046" y="-34.94999999999999" width="39.89130434782608" height="39.89130434782608" as="geometry" />
        </mxCell>
        <mxCell id="dCaCou-QPLY2ix1EQ3Cx-87" style="edgeStyle=orthogonalEdgeStyle;rounded=0;orthogonalLoop=1;jettySize=auto;html=1;exitX=0.75;exitY=1;exitDx=0;exitDy=0;entryX=1;entryY=0.5;entryDx=0;entryDy=0;entryPerimeter=0;endArrow=none;endFill=0;fontSize=24;" parent="dCaCou-QPLY2ix1EQ3Cx-1" source="dCaCou-QPLY2ix1EQ3Cx-68" target="dCaCou-QPLY2ix1EQ3Cx-78" edge="1">
          <mxGeometry relative="1" as="geometry" />
        </mxCell>
        <mxCell id="dCaCou-QPLY2ix1EQ3Cx-88" style="edgeStyle=orthogonalEdgeStyle;rounded=0;orthogonalLoop=1;jettySize=auto;html=1;exitX=0.25;exitY=1;exitDx=0;exitDy=0;entryX=0;entryY=0.5;entryDx=0;entryDy=0;entryPerimeter=0;endArrow=none;endFill=0;fontSize=24;" parent="dCaCou-QPLY2ix1EQ3Cx-1" source="dCaCou-QPLY2ix1EQ3Cx-68" target="dCaCou-QPLY2ix1EQ3Cx-77" edge="1">
          <mxGeometry relative="1" as="geometry" />
        </mxCell>
        <mxCell id="dCaCou-QPLY2ix1EQ3Cx-68" value="SEcurity&lt;br&gt;Intelligence Service" style="rounded=1;whiteSpace=wrap;html=1;strokeWidth=3;fillColor=#d5e8d4;fontSize=24;strokeColor=#82b366;" parent="dCaCou-QPLY2ix1EQ3Cx-1" vertex="1">
          <mxGeometry x="260" y="-371" width="127.12" height="81" as="geometry" />
        </mxCell>
        <mxCell id="dCaCou-QPLY2ix1EQ3Cx-69" value="Security&lt;br&gt;Orchestrator" style="rounded=1;whiteSpace=wrap;html=1;strokeWidth=3;fillColor=#dae8fc;fontSize=24;strokeColor=#6c8ebf;" parent="dCaCou-QPLY2ix1EQ3Cx-1" vertex="1">
          <mxGeometry x="450" y="-371" width="150" height="60" as="geometry" />
        </mxCell>
        <mxCell id="dCaCou-QPLY2ix1EQ3Cx-80" style="edgeStyle=orthogonalEdgeStyle;rounded=0;orthogonalLoop=1;jettySize=auto;html=1;exitX=0.75;exitY=1;exitDx=0;exitDy=0;entryX=1;entryY=0.5;entryDx=0;entryDy=0;entryPerimeter=0;endArrow=none;endFill=0;fontSize=24;" parent="dCaCou-QPLY2ix1EQ3Cx-1" source="dCaCou-QPLY2ix1EQ3Cx-70" target="dCaCou-QPLY2ix1EQ3Cx-74" edge="1">
          <mxGeometry relative="1" as="geometry" />
        </mxCell>
        <mxCell id="dCaCou-QPLY2ix1EQ3Cx-70" value="Policy &amp;amp; SSLA" style="rounded=1;whiteSpace=wrap;html=1;strokeWidth=3;fillColor=#fff2cc;fontSize=24;strokeColor=#d6b656;" parent="dCaCou-QPLY2ix1EQ3Cx-1" vertex="1">
          <mxGeometry x="630" y="-371" width="150" height="60" as="geometry" />
        </mxCell>
        <mxCell id="dCaCou-QPLY2ix1EQ3Cx-91" style="edgeStyle=orthogonalEdgeStyle;rounded=0;orthogonalLoop=1;jettySize=auto;html=1;exitX=0;exitY=0.5;exitDx=0;exitDy=0;exitPerimeter=0;entryX=0.25;entryY=1;entryDx=0;entryDy=0;endArrow=none;endFill=0;fontSize=24;" parent="dCaCou-QPLY2ix1EQ3Cx-1" source="dCaCou-QPLY2ix1EQ3Cx-71" target="dCaCou-QPLY2ix1EQ3Cx-2" edge="1">
          <mxGeometry relative="1" as="geometry" />
        </mxCell>
        <mxCell id="dCaCou-QPLY2ix1EQ3Cx-93" style="edgeStyle=orthogonalEdgeStyle;rounded=0;orthogonalLoop=1;jettySize=auto;html=1;exitX=1;exitY=0.5;exitDx=0;exitDy=0;exitPerimeter=0;entryX=0.863;entryY=0.005;entryDx=0;entryDy=0;entryPerimeter=0;endArrow=none;endFill=0;fontSize=24;" parent="dCaCou-QPLY2ix1EQ3Cx-1" source="dCaCou-QPLY2ix1EQ3Cx-71" target="dCaCou-QPLY2ix1EQ3Cx-7" edge="1">
          <mxGeometry relative="1" as="geometry" />
        </mxCell>
        <mxCell id="dCaCou-QPLY2ix1EQ3Cx-71" value="" style="shape=providedRequiredInterface;html=1;verticalLabelPosition=bottom;strokeWidth=3;fillColor=#ffffff;fontSize=24;rotation=90;" parent="dCaCou-QPLY2ix1EQ3Cx-1" vertex="1">
          <mxGeometry x="870" y="-185" width="35" height="37" as="geometry" />
        </mxCell>
        <mxCell id="dCaCou-QPLY2ix1EQ3Cx-92" style="edgeStyle=orthogonalEdgeStyle;rounded=0;orthogonalLoop=1;jettySize=auto;html=1;exitX=1;exitY=0.5;exitDx=0;exitDy=0;exitPerimeter=0;entryX=0.75;entryY=1;entryDx=0;entryDy=0;endArrow=none;endFill=0;fontSize=24;" parent="dCaCou-QPLY2ix1EQ3Cx-1" source="dCaCou-QPLY2ix1EQ3Cx-72" target="dCaCou-QPLY2ix1EQ3Cx-2" edge="1">
          <mxGeometry relative="1" as="geometry" />
        </mxCell>
        <mxCell id="dCaCou-QPLY2ix1EQ3Cx-94" style="edgeStyle=orthogonalEdgeStyle;rounded=0;orthogonalLoop=1;jettySize=auto;html=1;exitX=0;exitY=0.5;exitDx=0;exitDy=0;exitPerimeter=0;entryX=0.931;entryY=0.022;entryDx=0;entryDy=0;entryPerimeter=0;endArrow=none;endFill=0;fontSize=24;" parent="dCaCou-QPLY2ix1EQ3Cx-1" source="dCaCou-QPLY2ix1EQ3Cx-72" target="dCaCou-QPLY2ix1EQ3Cx-7" edge="1">
          <mxGeometry relative="1" as="geometry" />
        </mxCell>
        <mxCell id="dCaCou-QPLY2ix1EQ3Cx-72" value="" style="shape=providedRequiredInterface;html=1;verticalLabelPosition=bottom;strokeWidth=3;fillColor=#ffffff;fontSize=24;rotation=-90;" parent="dCaCou-QPLY2ix1EQ3Cx-1" vertex="1">
          <mxGeometry x="919" y="-190" width="35" height="37" as="geometry" />
        </mxCell>
        <mxCell id="dCaCou-QPLY2ix1EQ3Cx-81" style="edgeStyle=orthogonalEdgeStyle;rounded=0;orthogonalLoop=1;jettySize=auto;html=1;exitX=1;exitY=0.5;exitDx=0;exitDy=0;exitPerimeter=0;entryX=0.575;entryY=-0.029;entryDx=0;entryDy=0;endArrow=none;endFill=0;fontSize=24;entryPerimeter=0;" parent="dCaCou-QPLY2ix1EQ3Cx-1" source="dCaCou-QPLY2ix1EQ3Cx-73" target="dCaCou-QPLY2ix1EQ3Cx-7" edge="1">
          <mxGeometry relative="1" as="geometry" />
        </mxCell>
        <mxCell id="dCaCou-QPLY2ix1EQ3Cx-73" value="" style="shape=providedRequiredInterface;html=1;verticalLabelPosition=bottom;strokeWidth=3;fillColor=#ffffff;fontSize=24;rotation=90;" parent="dCaCou-QPLY2ix1EQ3Cx-1" vertex="1">
          <mxGeometry x="660" y="-180" width="35" height="37" as="geometry" />
        </mxCell>
        <mxCell id="dCaCou-QPLY2ix1EQ3Cx-82" style="edgeStyle=orthogonalEdgeStyle;rounded=0;orthogonalLoop=1;jettySize=auto;html=1;exitX=0;exitY=0.5;exitDx=0;exitDy=0;exitPerimeter=0;endArrow=none;endFill=0;fontSize=24;entryX=0.644;entryY=0.022;entryDx=0;entryDy=0;entryPerimeter=0;" parent="dCaCou-QPLY2ix1EQ3Cx-1" source="dCaCou-QPLY2ix1EQ3Cx-74" target="dCaCou-QPLY2ix1EQ3Cx-7" edge="1">
          <mxGeometry relative="1" as="geometry">
            <mxPoint x="620" y="-50" as="targetPoint" />
          </mxGeometry>
        </mxCell>
        <mxCell id="dCaCou-QPLY2ix1EQ3Cx-74" value="" style="shape=providedRequiredInterface;html=1;verticalLabelPosition=bottom;strokeWidth=3;fillColor=#ffffff;fontSize=24;rotation=-90;" parent="dCaCou-QPLY2ix1EQ3Cx-1" vertex="1">
          <mxGeometry x="709" y="-185" width="35" height="37" as="geometry" />
        </mxCell>
        <mxCell id="dCaCou-QPLY2ix1EQ3Cx-85" style="edgeStyle=orthogonalEdgeStyle;rounded=0;orthogonalLoop=1;jettySize=auto;html=1;exitX=0;exitY=0.5;exitDx=0;exitDy=0;exitPerimeter=0;entryX=0.25;entryY=1;entryDx=0;entryDy=0;endArrow=none;endFill=0;fontSize=24;" parent="dCaCou-QPLY2ix1EQ3Cx-1" source="dCaCou-QPLY2ix1EQ3Cx-75" target="dCaCou-QPLY2ix1EQ3Cx-69" edge="1">
          <mxGeometry relative="1" as="geometry" />
        </mxCell>
        <mxCell id="dCaCou-QPLY2ix1EQ3Cx-86" style="edgeStyle=orthogonalEdgeStyle;rounded=0;orthogonalLoop=1;jettySize=auto;html=1;exitX=1;exitY=0.5;exitDx=0;exitDy=0;exitPerimeter=0;endArrow=none;endFill=0;fontSize=24;entryX=0.326;entryY=0.022;entryDx=0;entryDy=0;entryPerimeter=0;" parent="dCaCou-QPLY2ix1EQ3Cx-1" source="dCaCou-QPLY2ix1EQ3Cx-75" target="dCaCou-QPLY2ix1EQ3Cx-7" edge="1">
          <mxGeometry relative="1" as="geometry">
            <mxPoint x="620" y="-50" as="targetPoint" />
          </mxGeometry>
        </mxCell>
        <mxCell id="dCaCou-QPLY2ix1EQ3Cx-75" value="" style="shape=providedRequiredInterface;html=1;verticalLabelPosition=bottom;strokeWidth=3;fillColor=#ffffff;fontSize=24;rotation=90;" parent="dCaCou-QPLY2ix1EQ3Cx-1" vertex="1">
          <mxGeometry x="478" y="-185" width="35" height="37" as="geometry" />
        </mxCell>
        <mxCell id="dCaCou-QPLY2ix1EQ3Cx-83" style="edgeStyle=orthogonalEdgeStyle;rounded=0;orthogonalLoop=1;jettySize=auto;html=1;exitX=0;exitY=0.5;exitDx=0;exitDy=0;exitPerimeter=0;endArrow=none;endFill=0;fontSize=24;entryX=0.394;entryY=0.022;entryDx=0;entryDy=0;entryPerimeter=0;" parent="dCaCou-QPLY2ix1EQ3Cx-1" source="dCaCou-QPLY2ix1EQ3Cx-76" target="dCaCou-QPLY2ix1EQ3Cx-7" edge="1">
          <mxGeometry relative="1" as="geometry">
            <mxPoint x="620" y="-50" as="targetPoint" />
          </mxGeometry>
        </mxCell>
        <mxCell id="dCaCou-QPLY2ix1EQ3Cx-84" style="edgeStyle=orthogonalEdgeStyle;rounded=0;orthogonalLoop=1;jettySize=auto;html=1;exitX=1;exitY=0.5;exitDx=0;exitDy=0;exitPerimeter=0;entryX=0.75;entryY=1;entryDx=0;entryDy=0;endArrow=none;endFill=0;fontSize=24;" parent="dCaCou-QPLY2ix1EQ3Cx-1" source="dCaCou-QPLY2ix1EQ3Cx-76" target="dCaCou-QPLY2ix1EQ3Cx-69" edge="1">
          <mxGeometry relative="1" as="geometry" />
        </mxCell>
        <mxCell id="dCaCou-QPLY2ix1EQ3Cx-76" value="" style="shape=providedRequiredInterface;html=1;verticalLabelPosition=bottom;strokeWidth=3;fillColor=#ffffff;fontSize=24;rotation=-90;" parent="dCaCou-QPLY2ix1EQ3Cx-1" vertex="1">
          <mxGeometry x="527" y="-190" width="35" height="37" as="geometry" />
        </mxCell>
        <mxCell id="dCaCou-QPLY2ix1EQ3Cx-89" style="edgeStyle=orthogonalEdgeStyle;rounded=0;orthogonalLoop=1;jettySize=auto;html=1;exitX=1;exitY=0.5;exitDx=0;exitDy=0;exitPerimeter=0;entryX=0.054;entryY=0.005;entryDx=0;entryDy=0;endArrow=none;endFill=0;fontSize=24;entryPerimeter=0;" parent="dCaCou-QPLY2ix1EQ3Cx-1" source="dCaCou-QPLY2ix1EQ3Cx-77" target="dCaCou-QPLY2ix1EQ3Cx-7" edge="1">
          <mxGeometry relative="1" as="geometry" />
        </mxCell>
        <mxCell id="dCaCou-QPLY2ix1EQ3Cx-77" value="" style="shape=providedRequiredInterface;html=1;verticalLabelPosition=bottom;strokeWidth=3;fillColor=#ffffff;fontSize=24;rotation=90;" parent="dCaCou-QPLY2ix1EQ3Cx-1" vertex="1">
          <mxGeometry x="280" y="-187.5" width="35" height="37" as="geometry" />
        </mxCell>
        <mxCell id="dCaCou-QPLY2ix1EQ3Cx-90" style="edgeStyle=orthogonalEdgeStyle;rounded=0;orthogonalLoop=1;jettySize=auto;html=1;entryX=0.124;entryY=-0.045;entryDx=0;entryDy=0;entryPerimeter=0;endArrow=none;endFill=0;fontSize=24;" parent="dCaCou-QPLY2ix1EQ3Cx-1" source="dCaCou-QPLY2ix1EQ3Cx-78" target="dCaCou-QPLY2ix1EQ3Cx-7" edge="1">
          <mxGeometry relative="1" as="geometry" />
        </mxCell>
        <mxCell id="dCaCou-QPLY2ix1EQ3Cx-78" value="" style="shape=providedRequiredInterface;html=1;verticalLabelPosition=bottom;strokeWidth=3;fillColor=#ffffff;fontSize=24;rotation=-90;" parent="dCaCou-QPLY2ix1EQ3Cx-1" vertex="1">
          <mxGeometry x="329" y="-192.5" width="35" height="37" as="geometry" />
        </mxCell>
        <mxCell id="dCaCou-QPLY2ix1EQ3Cx-99" style="edgeStyle=orthogonalEdgeStyle;rounded=0;orthogonalLoop=1;jettySize=auto;html=1;exitX=1;exitY=0.5;exitDx=0;exitDy=0;exitPerimeter=0;entryX=1;entryY=0.25;entryDx=0;entryDy=0;endArrow=none;endFill=0;fontSize=24;" parent="dCaCou-QPLY2ix1EQ3Cx-1" source="dCaCou-QPLY2ix1EQ3Cx-95" target="dCaCou-QPLY2ix1EQ3Cx-7" edge="1">
          <mxGeometry relative="1" as="geometry" />
        </mxCell>
        <mxCell id="dCaCou-QPLY2ix1EQ3Cx-95" value="" style="shape=providedRequiredInterface;html=1;verticalLabelPosition=bottom;strokeWidth=3;fillColor=#ffffff;fontSize=24;rotation=90;" parent="dCaCou-QPLY2ix1EQ3Cx-1" vertex="1">
          <mxGeometry x="1010" y="-143" width="35" height="37" as="geometry" />
        </mxCell>
        <mxCell id="dCaCou-QPLY2ix1EQ3Cx-100" style="edgeStyle=orthogonalEdgeStyle;rounded=0;orthogonalLoop=1;jettySize=auto;html=1;exitX=0;exitY=0.5;exitDx=0;exitDy=0;exitPerimeter=0;entryX=1;entryY=0.75;entryDx=0;entryDy=0;endArrow=none;endFill=0;fontSize=24;" parent="dCaCou-QPLY2ix1EQ3Cx-1" source="dCaCou-QPLY2ix1EQ3Cx-96" target="dCaCou-QPLY2ix1EQ3Cx-7" edge="1">
          <mxGeometry relative="1" as="geometry" />
        </mxCell>
        <mxCell id="dCaCou-QPLY2ix1EQ3Cx-96" value="" style="shape=providedRequiredInterface;html=1;verticalLabelPosition=bottom;strokeWidth=3;fillColor=#ffffff;fontSize=24;rotation=-90;" parent="dCaCou-QPLY2ix1EQ3Cx-1" vertex="1">
          <mxGeometry x="1059" y="-148" width="35" height="37" as="geometry" />
        </mxCell>
        <mxCell id="dCaCou-QPLY2ix1EQ3Cx-109" style="edgeStyle=orthogonalEdgeStyle;rounded=0;orthogonalLoop=1;jettySize=auto;html=1;exitX=0;exitY=0.5;exitDx=0;exitDy=0;exitPerimeter=0;entryX=0.049;entryY=0.988;entryDx=0;entryDy=0;entryPerimeter=0;endArrow=none;endFill=0;fontSize=24;" parent="dCaCou-QPLY2ix1EQ3Cx-1" source="dCaCou-QPLY2ix1EQ3Cx-107" target="dCaCou-QPLY2ix1EQ3Cx-17" edge="1">
          <mxGeometry relative="1" as="geometry" />
        </mxCell>
        <mxCell id="dCaCou-QPLY2ix1EQ3Cx-110" style="edgeStyle=orthogonalEdgeStyle;rounded=0;orthogonalLoop=1;jettySize=auto;html=1;exitX=1;exitY=0.5;exitDx=0;exitDy=0;exitPerimeter=0;entryX=0.124;entryY=0.017;entryDx=0;entryDy=0;entryPerimeter=0;endArrow=none;endFill=0;fontSize=24;" parent="dCaCou-QPLY2ix1EQ3Cx-1" source="dCaCou-QPLY2ix1EQ3Cx-107" target="dCaCou-QPLY2ix1EQ3Cx-33" edge="1">
          <mxGeometry relative="1" as="geometry" />
        </mxCell>
        <mxCell id="dCaCou-QPLY2ix1EQ3Cx-107" value="" style="shape=providedRequiredInterface;html=1;verticalLabelPosition=bottom;strokeWidth=3;fillColor=#ffffff;fontSize=24;rotation=90;" parent="dCaCou-QPLY2ix1EQ3Cx-1" vertex="1">
          <mxGeometry x="190.12" y="319" width="35" height="37" as="geometry" />
        </mxCell>
        <mxCell id="dCaCou-QPLY2ix1EQ3Cx-115" style="edgeStyle=orthogonalEdgeStyle;rounded=0;orthogonalLoop=1;jettySize=auto;html=1;exitX=0;exitY=0.5;exitDx=0;exitDy=0;exitPerimeter=0;entryX=0.111;entryY=0.039;entryDx=0;entryDy=0;entryPerimeter=0;endArrow=none;endFill=0;fontSize=24;" parent="dCaCou-QPLY2ix1EQ3Cx-1" source="dCaCou-QPLY2ix1EQ3Cx-108" target="dCaCou-QPLY2ix1EQ3Cx-24" edge="1">
          <mxGeometry relative="1" as="geometry" />
        </mxCell>
        <mxCell id="dCaCou-QPLY2ix1EQ3Cx-120" style="edgeStyle=orthogonalEdgeStyle;rounded=0;orthogonalLoop=1;jettySize=auto;html=1;exitX=1;exitY=0.5;exitDx=0;exitDy=0;exitPerimeter=0;entryX=0.293;entryY=1.039;entryDx=0;entryDy=0;entryPerimeter=0;endArrow=none;endFill=0;fontSize=24;" parent="dCaCou-QPLY2ix1EQ3Cx-1" source="dCaCou-QPLY2ix1EQ3Cx-108" target="dCaCou-QPLY2ix1EQ3Cx-17" edge="1">
          <mxGeometry relative="1" as="geometry" />
        </mxCell>
        <mxCell id="dCaCou-QPLY2ix1EQ3Cx-108" value="" style="shape=providedRequiredInterface;html=1;verticalLabelPosition=bottom;strokeWidth=3;fillColor=#ffffff;fontSize=24;rotation=-90;" parent="dCaCou-QPLY2ix1EQ3Cx-1" vertex="1">
          <mxGeometry x="415" y="319" width="35" height="37" as="geometry" />
        </mxCell>
        <mxCell id="dCaCou-QPLY2ix1EQ3Cx-116" style="edgeStyle=orthogonalEdgeStyle;rounded=0;orthogonalLoop=1;jettySize=auto;html=1;exitX=0;exitY=0.5;exitDx=0;exitDy=0;exitPerimeter=0;entryX=0.268;entryY=0.01;entryDx=0;entryDy=0;entryPerimeter=0;endArrow=none;endFill=0;fontSize=24;" parent="dCaCou-QPLY2ix1EQ3Cx-1" source="dCaCou-QPLY2ix1EQ3Cx-111" edge="1">
          <mxGeometry relative="1" as="geometry">
            <mxPoint x="541.616" y="497.65909999999974" as="targetPoint" />
          </mxGeometry>
        </mxCell>
        <mxCell id="dCaCou-QPLY2ix1EQ3Cx-121" style="edgeStyle=orthogonalEdgeStyle;rounded=0;orthogonalLoop=1;jettySize=auto;html=1;exitX=1;exitY=0.5;exitDx=0;exitDy=0;exitPerimeter=0;entryX=0.386;entryY=1.005;entryDx=0;entryDy=0;entryPerimeter=0;endArrow=none;endFill=0;fontSize=24;" parent="dCaCou-QPLY2ix1EQ3Cx-1" source="dCaCou-QPLY2ix1EQ3Cx-111" edge="1">
          <mxGeometry relative="1" as="geometry">
            <mxPoint x="540.1200000000003" y="279.9999999999999" as="targetPoint" />
          </mxGeometry>
        </mxCell>
        <mxCell id="dCaCou-QPLY2ix1EQ3Cx-111" value="" style="shape=providedRequiredInterface;html=1;verticalLabelPosition=bottom;strokeWidth=3;fillColor=#ffffff;fontSize=24;rotation=-90;" parent="dCaCou-QPLY2ix1EQ3Cx-1" vertex="1">
          <mxGeometry x="523.5" y="318.65" width="35" height="37" as="geometry" />
        </mxCell>
        <mxCell id="dCaCou-QPLY2ix1EQ3Cx-117" style="edgeStyle=orthogonalEdgeStyle;rounded=0;orthogonalLoop=1;jettySize=auto;html=1;exitX=0;exitY=0.5;exitDx=0;exitDy=0;exitPerimeter=0;entryX=0.414;entryY=0.039;entryDx=0;entryDy=0;entryPerimeter=0;endArrow=none;endFill=0;fontSize=24;" parent="dCaCou-QPLY2ix1EQ3Cx-1" source="dCaCou-QPLY2ix1EQ3Cx-112" edge="1">
          <mxGeometry relative="1" as="geometry">
            <mxPoint x="648.1680000000001" y="499.19549000000006" as="targetPoint" />
          </mxGeometry>
        </mxCell>
        <mxCell id="dCaCou-QPLY2ix1EQ3Cx-122" style="edgeStyle=orthogonalEdgeStyle;rounded=0;orthogonalLoop=1;jettySize=auto;html=1;exitX=1;exitY=0.5;exitDx=0;exitDy=0;exitPerimeter=0;entryX=0.477;entryY=1;entryDx=0;entryDy=0;entryPerimeter=0;endArrow=none;endFill=0;fontSize=24;" parent="dCaCou-QPLY2ix1EQ3Cx-1" source="dCaCou-QPLY2ix1EQ3Cx-112" edge="1">
          <mxGeometry relative="1" as="geometry">
            <mxPoint x="648.3400000000001" y="280" as="targetPoint" />
          </mxGeometry>
        </mxCell>
        <mxCell id="dCaCou-QPLY2ix1EQ3Cx-112" value="" style="shape=providedRequiredInterface;html=1;verticalLabelPosition=bottom;strokeWidth=3;fillColor=#ffffff;fontSize=24;rotation=-90;" parent="dCaCou-QPLY2ix1EQ3Cx-1" vertex="1">
          <mxGeometry x="630.5" y="319" width="35" height="37" as="geometry" />
        </mxCell>
        <mxCell id="dCaCou-QPLY2ix1EQ3Cx-118" style="edgeStyle=orthogonalEdgeStyle;rounded=0;orthogonalLoop=1;jettySize=auto;html=1;exitX=0;exitY=0.5;exitDx=0;exitDy=0;exitPerimeter=0;entryX=0.548;entryY=0.01;entryDx=0;entryDy=0;entryPerimeter=0;endArrow=none;endFill=0;fontSize=24;" parent="dCaCou-QPLY2ix1EQ3Cx-1" source="dCaCou-QPLY2ix1EQ3Cx-113" edge="1">
          <mxGeometry relative="1" as="geometry">
            <mxPoint x="777.9760000000001" y="494.2390999999997" as="targetPoint" />
          </mxGeometry>
        </mxCell>
        <mxCell id="dCaCou-QPLY2ix1EQ3Cx-123" style="edgeStyle=orthogonalEdgeStyle;rounded=0;orthogonalLoop=1;jettySize=auto;html=1;exitX=1;exitY=0.5;exitDx=0;exitDy=0;exitPerimeter=0;entryX=0.559;entryY=1.022;entryDx=0;entryDy=0;entryPerimeter=0;endArrow=none;endFill=0;fontSize=24;" parent="dCaCou-QPLY2ix1EQ3Cx-1" source="dCaCou-QPLY2ix1EQ3Cx-113" edge="1">
          <mxGeometry relative="1" as="geometry">
            <mxPoint x="778.2799999999997" y="277.7699999999999" as="targetPoint" />
          </mxGeometry>
        </mxCell>
        <mxCell id="dCaCou-QPLY2ix1EQ3Cx-113" value="" style="shape=providedRequiredInterface;html=1;verticalLabelPosition=bottom;strokeWidth=3;fillColor=#ffffff;fontSize=24;rotation=-90;" parent="dCaCou-QPLY2ix1EQ3Cx-1" vertex="1">
          <mxGeometry x="760" y="315.22999999999996" width="35" height="37" as="geometry" />
        </mxCell>
        <mxCell id="dCaCou-QPLY2ix1EQ3Cx-119" style="edgeStyle=orthogonalEdgeStyle;rounded=0;orthogonalLoop=1;jettySize=auto;html=1;exitX=0;exitY=0.5;exitDx=0;exitDy=0;exitPerimeter=0;entryX=0.697;entryY=0.039;entryDx=0;entryDy=0;entryPerimeter=0;endArrow=none;endFill=0;fontSize=24;" parent="dCaCou-QPLY2ix1EQ3Cx-1" source="dCaCou-QPLY2ix1EQ3Cx-114" edge="1">
          <mxGeometry relative="1" as="geometry">
            <mxPoint x="908.7139999999999" y="497.59549000000004" as="targetPoint" />
          </mxGeometry>
        </mxCell>
        <mxCell id="dCaCou-QPLY2ix1EQ3Cx-124" style="edgeStyle=orthogonalEdgeStyle;rounded=0;orthogonalLoop=1;jettySize=auto;html=1;exitX=1;exitY=0.5;exitDx=0;exitDy=0;exitPerimeter=0;entryX=0.65;entryY=1.005;entryDx=0;entryDy=0;entryPerimeter=0;endArrow=none;endFill=0;fontSize=24;" parent="dCaCou-QPLY2ix1EQ3Cx-1" source="dCaCou-QPLY2ix1EQ3Cx-114" edge="1">
          <mxGeometry relative="1" as="geometry">
            <mxPoint x="909" y="278.7499999999999" as="targetPoint" />
          </mxGeometry>
        </mxCell>
        <mxCell id="dCaCou-QPLY2ix1EQ3Cx-114" value="" style="shape=providedRequiredInterface;html=1;verticalLabelPosition=bottom;strokeWidth=3;fillColor=#ffffff;fontSize=24;rotation=-90;" parent="dCaCou-QPLY2ix1EQ3Cx-1" vertex="1">
          <mxGeometry x="892" y="317.4" width="35" height="37" as="geometry" />
        </mxCell>
        <mxCell id="dCaCou-QPLY2ix1EQ3Cx-125" value="Domain&lt;br&gt;Control" style="text;html=1;align=center;verticalAlign=middle;resizable=0;points=[];autosize=1;fontSize=24;" parent="dCaCou-QPLY2ix1EQ3Cx-1" vertex="1">
          <mxGeometry x="329" y="356" width="100" height="60" as="geometry" />
        </mxCell>
        <mxCell id="dCaCou-QPLY2ix1EQ3Cx-126" value="Domain&lt;br&gt;Orch" style="text;html=1;align=center;verticalAlign=middle;resizable=0;points=[];autosize=1;fontSize=24;" parent="dCaCou-QPLY2ix1EQ3Cx-1" vertex="1">
          <mxGeometry x="450" y="355.65" width="100" height="60" as="geometry" />
        </mxCell>
        <mxCell id="dCaCou-QPLY2ix1EQ3Cx-127" value="Domain&lt;br&gt;Intell" style="text;html=1;align=center;verticalAlign=middle;resizable=0;points=[];autosize=1;fontSize=24;" parent="dCaCou-QPLY2ix1EQ3Cx-1" vertex="1">
          <mxGeometry x="558.5" y="356" width="100" height="60" as="geometry" />
        </mxCell>
        <mxCell id="dCaCou-QPLY2ix1EQ3Cx-130" value="Domain&lt;br&gt;Analytics" style="text;html=1;align=center;verticalAlign=middle;resizable=0;points=[];autosize=1;fontSize=24;" parent="dCaCou-QPLY2ix1EQ3Cx-1" vertex="1">
          <mxGeometry x="671.5" y="356" width="110" height="60" as="geometry" />
        </mxCell>
        <mxCell id="dCaCou-QPLY2ix1EQ3Cx-133" value="Domain&lt;br&gt;Data&lt;br&gt;Collection" style="text;html=1;align=center;verticalAlign=middle;resizable=0;points=[];autosize=1;fontSize=24;" parent="dCaCou-QPLY2ix1EQ3Cx-1" vertex="1">
          <mxGeometry x="790" y="341" width="120" height="90" as="geometry" />
        </mxCell>
        <mxCell id="dCaCou-QPLY2ix1EQ3Cx-145" value="" style="shape=flexArrow;endArrow=classic;startArrow=classic;html=1;fontSize=24;entryX=0.469;entryY=-0.024;entryDx=0;entryDy=0;entryPerimeter=0;exitX=0.5;exitY=1;exitDx=0;exitDy=0;fillColor=#f5f5f5;strokeColor=#666666;" parent="dCaCou-QPLY2ix1EQ3Cx-1" source="dCaCou-QPLY2ix1EQ3Cx-33" target="dCaCou-QPLY2ix1EQ3Cx-60" edge="1">
          <mxGeometry width="50" height="50" relative="1" as="geometry">
            <mxPoint x="210" y="680" as="sourcePoint" />
            <mxPoint x="260" y="630" as="targetPoint" />
          </mxGeometry>
        </mxCell>
        <mxCell id="yyv-tWTinPbni0Gbx-b9-7" style="edgeStyle=orthogonalEdgeStyle;rounded=0;orthogonalLoop=1;jettySize=auto;html=1;exitX=0;exitY=0.5;exitDx=0;exitDy=0;exitPerimeter=0;entryX=0.908;entryY=1.062;entryDx=0;entryDy=0;entryPerimeter=0;endArrow=none;endFill=0;" edge="1" parent="dCaCou-QPLY2ix1EQ3Cx-1" source="yyv-tWTinPbni0Gbx-b9-0" target="dCaCou-QPLY2ix1EQ3Cx-7">
          <mxGeometry relative="1" as="geometry" />
        </mxCell>
        <mxCell id="yyv-tWTinPbni0Gbx-b9-11" style="edgeStyle=orthogonalEdgeStyle;rounded=0;orthogonalLoop=1;jettySize=auto;html=1;exitX=1;exitY=0.5;exitDx=0;exitDy=0;exitPerimeter=0;entryX=0.827;entryY=-0.033;entryDx=0;entryDy=0;entryPerimeter=0;endArrow=none;endFill=0;" edge="1" parent="dCaCou-QPLY2ix1EQ3Cx-1" source="yyv-tWTinPbni0Gbx-b9-0" target="dCaCou-QPLY2ix1EQ3Cx-17">
          <mxGeometry relative="1" as="geometry" />
        </mxCell>
        <mxCell id="yyv-tWTinPbni0Gbx-b9-0" value="" style="shape=providedRequiredInterface;html=1;verticalLabelPosition=bottom;strokeWidth=3;fillColor=#ffffff;fontSize=24;rotation=90;" vertex="1" parent="dCaCou-QPLY2ix1EQ3Cx-1">
          <mxGeometry x="905" y="112.49999999999984" width="35" height="37" as="geometry" />
        </mxCell>
        <mxCell id="yyv-tWTinPbni0Gbx-b9-6" style="edgeStyle=orthogonalEdgeStyle;rounded=0;orthogonalLoop=1;jettySize=auto;html=1;exitX=0;exitY=0.5;exitDx=0;exitDy=0;exitPerimeter=0;entryX=0.718;entryY=1.086;entryDx=0;entryDy=0;entryPerimeter=0;endArrow=none;endFill=0;" edge="1" parent="dCaCou-QPLY2ix1EQ3Cx-1" source="yyv-tWTinPbni0Gbx-b9-1" target="dCaCou-QPLY2ix1EQ3Cx-7">
          <mxGeometry relative="1" as="geometry" />
        </mxCell>
        <mxCell id="yyv-tWTinPbni0Gbx-b9-10" style="edgeStyle=orthogonalEdgeStyle;rounded=0;orthogonalLoop=1;jettySize=auto;html=1;exitX=1;exitY=0.5;exitDx=0;exitDy=0;exitPerimeter=0;entryX=0.67;entryY=-0.033;entryDx=0;entryDy=0;entryPerimeter=0;endArrow=none;endFill=0;" edge="1" parent="dCaCou-QPLY2ix1EQ3Cx-1" source="yyv-tWTinPbni0Gbx-b9-1" target="dCaCou-QPLY2ix1EQ3Cx-17">
          <mxGeometry relative="1" as="geometry" />
        </mxCell>
        <mxCell id="yyv-tWTinPbni0Gbx-b9-1" value="" style="shape=providedRequiredInterface;html=1;verticalLabelPosition=bottom;strokeWidth=3;fillColor=#ffffff;fontSize=24;rotation=90;" vertex="1" parent="dCaCou-QPLY2ix1EQ3Cx-1">
          <mxGeometry x="763" y="112.49999999999984" width="35" height="37" as="geometry" />
        </mxCell>
        <mxCell id="yyv-tWTinPbni0Gbx-b9-5" style="edgeStyle=orthogonalEdgeStyle;rounded=0;orthogonalLoop=1;jettySize=auto;html=1;exitX=0;exitY=0.5;exitDx=0;exitDy=0;exitPerimeter=0;entryX=0.52;entryY=0.99;entryDx=0;entryDy=0;entryPerimeter=0;endArrow=none;endFill=0;" edge="1" parent="dCaCou-QPLY2ix1EQ3Cx-1" source="yyv-tWTinPbni0Gbx-b9-2" target="dCaCou-QPLY2ix1EQ3Cx-7">
          <mxGeometry relative="1" as="geometry" />
        </mxCell>
        <mxCell id="yyv-tWTinPbni0Gbx-b9-9" style="edgeStyle=orthogonalEdgeStyle;rounded=0;orthogonalLoop=1;jettySize=auto;html=1;exitX=1;exitY=0.5;exitDx=0;exitDy=0;exitPerimeter=0;entryX=0.517;entryY=-0.033;entryDx=0;entryDy=0;entryPerimeter=0;endArrow=none;endFill=0;" edge="1" parent="dCaCou-QPLY2ix1EQ3Cx-1" source="yyv-tWTinPbni0Gbx-b9-2" target="dCaCou-QPLY2ix1EQ3Cx-17">
          <mxGeometry relative="1" as="geometry" />
        </mxCell>
        <mxCell id="yyv-tWTinPbni0Gbx-b9-2" value="" style="shape=providedRequiredInterface;html=1;verticalLabelPosition=bottom;strokeWidth=3;fillColor=#ffffff;fontSize=24;rotation=90;" vertex="1" parent="dCaCou-QPLY2ix1EQ3Cx-1">
          <mxGeometry x="620" y="112.49999999999984" width="35" height="37" as="geometry" />
        </mxCell>
        <mxCell id="yyv-tWTinPbni0Gbx-b9-4" style="edgeStyle=orthogonalEdgeStyle;rounded=0;orthogonalLoop=1;jettySize=auto;html=1;exitX=0;exitY=0.5;exitDx=0;exitDy=0;exitPerimeter=0;entryX=0.327;entryY=1.11;entryDx=0;entryDy=0;entryPerimeter=0;endArrow=none;endFill=0;" edge="1" parent="dCaCou-QPLY2ix1EQ3Cx-1" source="yyv-tWTinPbni0Gbx-b9-3" target="dCaCou-QPLY2ix1EQ3Cx-7">
          <mxGeometry relative="1" as="geometry" />
        </mxCell>
        <mxCell id="yyv-tWTinPbni0Gbx-b9-8" style="edgeStyle=orthogonalEdgeStyle;rounded=0;orthogonalLoop=1;jettySize=auto;html=1;exitX=1;exitY=0.5;exitDx=0;exitDy=0;exitPerimeter=0;entryX=0.36;entryY=0.014;entryDx=0;entryDy=0;entryPerimeter=0;endArrow=none;endFill=0;" edge="1" parent="dCaCou-QPLY2ix1EQ3Cx-1" source="yyv-tWTinPbni0Gbx-b9-3" target="dCaCou-QPLY2ix1EQ3Cx-17">
          <mxGeometry relative="1" as="geometry" />
        </mxCell>
        <mxCell id="yyv-tWTinPbni0Gbx-b9-3" value="" style="shape=providedRequiredInterface;html=1;verticalLabelPosition=bottom;strokeWidth=3;fillColor=#ffffff;fontSize=24;rotation=90;" vertex="1" parent="dCaCou-QPLY2ix1EQ3Cx-1">
          <mxGeometry x="478" y="112.49999999999984" width="35" height="37" as="geometry" />
        </mxCell>
        <mxCell id="yyv-tWTinPbni0Gbx-b9-12" value="E2E&lt;br&gt;Orchestration" style="text;html=1;align=center;verticalAlign=middle;resizable=0;points=[];autosize=1;fontSize=24;" vertex="1" parent="dCaCou-QPLY2ix1EQ3Cx-1">
          <mxGeometry x="334" y="112.5" width="160" height="60" as="geometry" />
        </mxCell>
        <mxCell id="yyv-tWTinPbni0Gbx-b9-13" value="E2E&lt;br&gt;Intelligence" style="text;html=1;align=center;verticalAlign=middle;resizable=0;points=[];autosize=1;fontSize=24;" vertex="1" parent="dCaCou-QPLY2ix1EQ3Cx-1">
          <mxGeometry x="515.5" y="122.5" width="140" height="60" as="geometry" />
        </mxCell>
        <mxCell id="yyv-tWTinPbni0Gbx-b9-14" value="E2E&lt;br&gt;Analitics" style="text;html=1;align=center;verticalAlign=middle;resizable=0;points=[];autosize=1;fontSize=24;" vertex="1" parent="dCaCou-QPLY2ix1EQ3Cx-1">
          <mxGeometry x="685" y="122.5" width="100" height="60" as="geometry" />
        </mxCell>
        <mxCell id="yyv-tWTinPbni0Gbx-b9-15" value="E2E&lt;br&gt;Data Collection" style="text;html=1;align=center;verticalAlign=middle;resizable=0;points=[];autosize=1;fontSize=24;" vertex="1" parent="dCaCou-QPLY2ix1EQ3Cx-1">
          <mxGeometry x="788" y="122.5" width="180" height="60" as="geometry" />
        </mxCell>
      </root>
    </mxGraphModel>
  </diagram>
  <diagram id="FTm--xtf6yMnZ-6XANvy" name="Jordi&#39;s view">
    <mxGraphModel dx="1770" dy="1919" grid="1" gridSize="10" guides="1" tooltips="1" connect="1" arrows="1" fold="1" page="1" pageScale="1" pageWidth="1169" pageHeight="827" math="0" shadow="0">
      <root>
        <mxCell id="Gz3L1LVbqohKDapeBJeI-0" />
        <mxCell id="Gz3L1LVbqohKDapeBJeI-1" parent="Gz3L1LVbqohKDapeBJeI-0" />
        <mxCell id="SaNyundnWLQgvomM5lKo-0" value="&lt;font color=&quot;#000099&quot;&gt;Management&lt;br&gt;Domain&lt;/font&gt;" style="rounded=0;whiteSpace=wrap;html=1;fontSize=24;strokeWidth=5;align=right;verticalAlign=top;fillColor=#ffffff;" parent="Gz3L1LVbqohKDapeBJeI-1" vertex="1">
          <mxGeometry x="80" y="-20" width="850" height="560.38" as="geometry" />
        </mxCell>
        <mxCell id="SaNyundnWLQgvomM5lKo-1" value="" style="group" parent="Gz3L1LVbqohKDapeBJeI-1" vertex="1" connectable="0">
          <mxGeometry x="90" y="270" width="260" height="260" as="geometry" />
        </mxCell>
        <mxCell id="SaNyundnWLQgvomM5lKo-2" value="Analytics&lt;br style=&quot;font-size: 23px;&quot;&gt;Engine" style="rounded=1;whiteSpace=wrap;html=1;gradientColor=#97d077;fillColor=#d5e8d4;strokeColor=#82b366;labelPosition=center;verticalLabelPosition=middle;align=center;verticalAlign=top;fontSize=23;" parent="SaNyundnWLQgvomM5lKo-1" vertex="1">
          <mxGeometry y="80" width="260" height="180" as="geometry" />
        </mxCell>
        <mxCell id="SaNyundnWLQgvomM5lKo-3" value="Anomaly Detection Service" style="rounded=1;whiteSpace=wrap;html=1;fillColor=#d5e8d4;strokeColor=#82b366;fontSize=16;" parent="SaNyundnWLQgvomM5lKo-1" vertex="1">
          <mxGeometry x="20" y="147" width="110" height="106" as="geometry" />
        </mxCell>
        <mxCell id="SaNyundnWLQgvomM5lKo-4" value="RCA Service" style="rounded=1;whiteSpace=wrap;html=1;fillColor=#d5e8d4;strokeColor=#82b366;fontSize=16;" parent="SaNyundnWLQgvomM5lKo-1" vertex="1">
          <mxGeometry x="139.94" y="147" width="110" height="106" as="geometry" />
        </mxCell>
        <mxCell id="SaNyundnWLQgvomM5lKo-5" value="Intelligence&lt;br&gt;&lt;div&gt;&lt;span&gt;Engine&lt;/span&gt;&lt;/div&gt;" style="rounded=1;whiteSpace=wrap;html=1;gradientColor=#97d077;fillColor=#d5e8d4;strokeColor=#82b366;labelPosition=center;verticalLabelPosition=middle;align=center;verticalAlign=middle;fontSize=23;" parent="Gz3L1LVbqohKDapeBJeI-1" vertex="1">
          <mxGeometry x="100" y="230" width="130" height="99.19" as="geometry" />
        </mxCell>
        <mxCell id="SaNyundnWLQgvomM5lKo-6" value="&lt;div style=&quot;text-align: center&quot;&gt;&lt;span&gt;Security&lt;/span&gt;&lt;/div&gt;&lt;div style=&quot;text-align: center&quot;&gt;&lt;span&gt;Orchestrator&lt;/span&gt;&lt;/div&gt;" style="rounded=1;whiteSpace=wrap;html=1;gradientColor=#7ea6e0;fillColor=#dae8fc;strokeColor=#6c8ebf;labelPosition=center;verticalLabelPosition=middle;align=left;verticalAlign=middle;fontSize=23;" parent="Gz3L1LVbqohKDapeBJeI-1" vertex="1">
          <mxGeometry x="100" y="110" width="130" height="99.19" as="geometry" />
        </mxCell>
        <mxCell id="SaNyundnWLQgvomM5lKo-7" value="Policy &amp;amp;SLA&lt;br&gt;Management" style="rounded=1;whiteSpace=wrap;html=1;gradientColor=#ea6b66;fillColor=#f8cecc;strokeColor=#b85450;labelPosition=center;verticalLabelPosition=middle;align=center;verticalAlign=middle;fontSize=23;" parent="Gz3L1LVbqohKDapeBJeI-1" vertex="1">
          <mxGeometry x="100" y="-10" width="130" height="99.19" as="geometry" />
        </mxCell>
        <mxCell id="SaNyundnWLQgvomM5lKo-10" value="Data&lt;br&gt;Services" style="strokeWidth=2;html=1;shape=mxgraph.flowchart.database;whiteSpace=wrap;fontSize=24;verticalAlign=top;labelPosition=center;verticalLabelPosition=bottom;align=center;" parent="Gz3L1LVbqohKDapeBJeI-1" vertex="1">
          <mxGeometry x="660" y="48.280453400503745" width="95" height="40.90680100755667" as="geometry" />
        </mxCell>
        <mxCell id="SaNyundnWLQgvomM5lKo-22" value="" style="group" parent="Gz3L1LVbqohKDapeBJeI-1" vertex="1" connectable="0">
          <mxGeometry x="400" y="-10" width="210" height="530" as="geometry" />
        </mxCell>
        <mxCell id="SaNyundnWLQgvomM5lKo-8" value="&lt;font style=&quot;font-size: 33px&quot;&gt;&lt;b&gt;Domain&lt;/b&gt; Integration Fabric&lt;/font&gt;" style="rounded=1;whiteSpace=wrap;html=1;" parent="SaNyundnWLQgvomM5lKo-22" vertex="1">
          <mxGeometry width="210" height="530.0000000000001" as="geometry" />
        </mxCell>
        <mxCell id="SaNyundnWLQgvomM5lKo-9" value="" style="aspect=fixed;html=1;points=[];align=center;image;fontSize=12;image=img/lib/mscae/Service_Fabric.svg;" parent="SaNyundnWLQgvomM5lKo-22" vertex="1">
          <mxGeometry x="155.0565217391304" width="34.68809073724007" height="34.68809073724007" as="geometry" />
        </mxCell>
        <mxCell id="BI9rUfDPTZyNuoP5-Op2-1" value="" style="shape=flexArrow;endArrow=classic;startArrow=classic;html=1;fontSize=16;entryX=-0.01;entryY=0.826;entryDx=0;entryDy=0;entryPerimeter=0;" parent="Gz3L1LVbqohKDapeBJeI-1" target="SaNyundnWLQgvomM5lKo-8" edge="1">
          <mxGeometry width="50" height="50" relative="1" as="geometry">
            <mxPoint x="350" y="428" as="sourcePoint" />
            <mxPoint x="370" y="250" as="targetPoint" />
          </mxGeometry>
        </mxCell>
        <mxCell id="BI9rUfDPTZyNuoP5-Op2-2" value="" style="shape=flexArrow;endArrow=classic;startArrow=classic;html=1;fontSize=16;entryX=0.005;entryY=0.564;entryDx=0;entryDy=0;entryPerimeter=0;" parent="Gz3L1LVbqohKDapeBJeI-1" target="SaNyundnWLQgvomM5lKo-8" edge="1">
          <mxGeometry width="50" height="50" relative="1" as="geometry">
            <mxPoint x="230" y="290.22" as="sourcePoint" />
            <mxPoint x="277.9000000000001" y="290.0000000000002" as="targetPoint" />
          </mxGeometry>
        </mxCell>
        <mxCell id="BI9rUfDPTZyNuoP5-Op2-3" value="" style="shape=flexArrow;endArrow=classic;startArrow=classic;html=1;fontSize=16;entryX=0.005;entryY=0.564;entryDx=0;entryDy=0;entryPerimeter=0;" parent="Gz3L1LVbqohKDapeBJeI-1" edge="1">
          <mxGeometry width="50" height="50" relative="1" as="geometry">
            <mxPoint x="228.95" y="160.24000000000004" as="sourcePoint" />
            <mxPoint x="399.99999999999994" y="158.94000000000008" as="targetPoint" />
          </mxGeometry>
        </mxCell>
        <mxCell id="BI9rUfDPTZyNuoP5-Op2-4" value="" style="shape=flexArrow;endArrow=classic;startArrow=classic;html=1;fontSize=16;entryX=0.005;entryY=0.564;entryDx=0;entryDy=0;entryPerimeter=0;" parent="Gz3L1LVbqohKDapeBJeI-1" edge="1">
          <mxGeometry width="50" height="50" relative="1" as="geometry">
            <mxPoint x="228.95000000000005" y="49.58000000000001" as="sourcePoint" />
            <mxPoint x="400" y="48.28000000000006" as="targetPoint" />
          </mxGeometry>
        </mxCell>
        <mxCell id="BI9rUfDPTZyNuoP5-Op2-8" value="Security&amp;nbsp;&lt;br&gt;Proxy?" style="shape=providedRequiredInterface;html=1;verticalLabelPosition=top;fillColor=#ffcd28;fontSize=16;align=center;gradientColor=#ffa500;strokeColor=#d79b00;rotation=-180;horizontal=0;labelPosition=center;verticalAlign=bottom;" parent="Gz3L1LVbqohKDapeBJeI-1" vertex="1">
          <mxGeometry x="660" y="280" width="40" height="40" as="geometry" />
        </mxCell>
        <mxCell id="BI9rUfDPTZyNuoP5-Op2-9" value="" style="shape=flexArrow;endArrow=classic;startArrow=classic;html=1;fontSize=16;entryX=-0.01;entryY=0.826;entryDx=0;entryDy=0;entryPerimeter=0;" parent="Gz3L1LVbqohKDapeBJeI-1" edge="1">
          <mxGeometry width="50" height="50" relative="1" as="geometry">
            <mxPoint x="612.1" y="299.51" as="sourcePoint" />
            <mxPoint x="660.0000000000001" y="299.28999999999974" as="targetPoint" />
          </mxGeometry>
        </mxCell>
        <mxCell id="BI9rUfDPTZyNuoP5-Op2-10" value="" style="shape=flexArrow;endArrow=classic;startArrow=classic;html=1;fontSize=16;entryX=-0.01;entryY=0.826;entryDx=0;entryDy=0;entryPerimeter=0;" parent="Gz3L1LVbqohKDapeBJeI-1" edge="1">
          <mxGeometry width="50" height="50" relative="1" as="geometry">
            <mxPoint x="699.9999999999999" y="299.5100000000002" as="sourcePoint" />
            <mxPoint x="747.9" y="299.28999999999996" as="targetPoint" />
          </mxGeometry>
        </mxCell>
        <mxCell id="BI9rUfDPTZyNuoP5-Op2-11" value="" style="group" parent="Gz3L1LVbqohKDapeBJeI-1" vertex="1" connectable="0">
          <mxGeometry x="750" y="170" width="120" height="300" as="geometry" />
        </mxCell>
        <mxCell id="BI9rUfDPTZyNuoP5-Op2-5" value="Service Management Domain" style="rounded=1;whiteSpace=wrap;html=1;fontSize=16;align=center;verticalAlign=top;" parent="BI9rUfDPTZyNuoP5-Op2-11" vertex="1">
          <mxGeometry width="120" height="300" as="geometry" />
        </mxCell>
        <mxCell id="BI9rUfDPTZyNuoP5-Op2-6" value="NFVO" style="rounded=1;whiteSpace=wrap;html=1;fontSize=16;align=center;" parent="BI9rUfDPTZyNuoP5-Op2-11" vertex="1">
          <mxGeometry y="170" width="120" height="47.27" as="geometry" />
        </mxCell>
        <mxCell id="BI9rUfDPTZyNuoP5-Op2-7" value="NFVM" style="rounded=1;whiteSpace=wrap;html=1;fontSize=16;align=center;" parent="BI9rUfDPTZyNuoP5-Op2-11" vertex="1">
          <mxGeometry y="230" width="120" height="56.36" as="geometry" />
        </mxCell>
        <mxCell id="wLoE-hE-7E3JoY2Qd5hF-28" value="Service Orch/&lt;br&gt;Manager" style="rounded=1;whiteSpace=wrap;html=1;fontSize=16;align=center;" parent="BI9rUfDPTZyNuoP5-Op2-11" vertex="1">
          <mxGeometry y="68.1809090909091" width="120" height="81.81818181818181" as="geometry" />
        </mxCell>
        <mxCell id="BI9rUfDPTZyNuoP5-Op2-12" value="" style="shape=flexArrow;endArrow=classic;startArrow=classic;html=1;fontSize=16;entryX=-0.01;entryY=0.826;entryDx=0;entryDy=0;entryPerimeter=0;" parent="Gz3L1LVbqohKDapeBJeI-1" source="BI9rUfDPTZyNuoP5-Op2-8" edge="1">
          <mxGeometry width="50" height="50" relative="1" as="geometry">
            <mxPoint x="702.1" y="350.2200000000002" as="sourcePoint" />
            <mxPoint x="750.0000000000001" y="349.99999999999994" as="targetPoint" />
          </mxGeometry>
        </mxCell>
        <mxCell id="BI9rUfDPTZyNuoP5-Op2-13" value="" style="shape=flexArrow;endArrow=classic;startArrow=classic;html=1;fontSize=16;entryX=-0.01;entryY=0.826;entryDx=0;entryDy=0;entryPerimeter=0;exitX=0.5;exitY=-0.25;exitDx=0;exitDy=0;exitPerimeter=0;" parent="Gz3L1LVbqohKDapeBJeI-1" source="BI9rUfDPTZyNuoP5-Op2-8" edge="1">
          <mxGeometry width="50" height="50" relative="1" as="geometry">
            <mxPoint x="699.9999999999999" y="430.22000000000025" as="sourcePoint" />
            <mxPoint x="747.9" y="430" as="targetPoint" />
          </mxGeometry>
        </mxCell>
        <mxCell id="GTs8w9uEP3nvRJxWN3Me-0" value="" style="group;fontSize=24;" parent="Gz3L1LVbqohKDapeBJeI-1" vertex="1" connectable="0">
          <mxGeometry x="154" y="-270" width="2086" height="70" as="geometry" />
        </mxCell>
        <mxCell id="GTs8w9uEP3nvRJxWN3Me-1" value="&lt;font style=&quot;font-size: 33px&quot;&gt;&lt;b&gt;Cross Domain&lt;/b&gt; Integration Fabric&lt;/font&gt;" style="rounded=1;whiteSpace=wrap;html=1;" parent="GTs8w9uEP3nvRJxWN3Me-0" vertex="1">
          <mxGeometry width="2086" height="70" as="geometry" />
        </mxCell>
        <mxCell id="GTs8w9uEP3nvRJxWN3Me-2" value="" style="aspect=fixed;html=1;points=[];align=center;image;fontSize=12;image=img/lib/mscae/Service_Fabric.svg;" parent="GTs8w9uEP3nvRJxWN3Me-0" vertex="1">
          <mxGeometry x="45.347826086956516" y="10" width="50" height="50" as="geometry" />
        </mxCell>
        <mxCell id="GTs8w9uEP3nvRJxWN3Me-6" value="Cross Domain Data&lt;br&gt;Services" style="strokeWidth=2;html=1;shape=mxgraph.flowchart.database;whiteSpace=wrap;fontSize=24;verticalAlign=top;labelPosition=center;verticalLabelPosition=bottom;align=center;" parent="Gz3L1LVbqohKDapeBJeI-1" vertex="1">
          <mxGeometry x="5" y="-280" width="95" height="70" as="geometry" />
        </mxCell>
        <mxCell id="kK_kSlolAjdT9l2AlZrC-1" value="" style="shape=flexArrow;endArrow=classic;startArrow=classic;html=1;fontSize=16;gradientColor=#b3b3b3;fillColor=#f5f5f5;strokeColor=#666666;endWidth=55.714285714285715;endSize=11.12857142857143;startWidth=55.714285714285715;startSize=11.12857142857143;width=41.42857142857143;" parent="Gz3L1LVbqohKDapeBJeI-1" edge="1">
          <mxGeometry width="50" height="50" relative="1" as="geometry">
            <mxPoint x="514" y="-197" as="sourcePoint" />
            <mxPoint x="514" y="-11" as="targetPoint" />
          </mxGeometry>
        </mxCell>
        <mxCell id="7O_3yWQSXOErDDaV36c1-0" value="OTT" style="rounded=1;whiteSpace=wrap;html=1;strokeWidth=3;fillColor=#e6d0de;fontSize=24;strokeColor=#996185;gradientColor=#d5739d;" parent="Gz3L1LVbqohKDapeBJeI-1" vertex="1">
          <mxGeometry x="30" y="-420" width="150" height="60" as="geometry" />
        </mxCell>
        <mxCell id="7O_3yWQSXOErDDaV36c1-1" value="Other Operators" style="rounded=1;whiteSpace=wrap;html=1;strokeWidth=3;fillColor=#e6d0de;fontSize=24;strokeColor=#996185;gradientColor=#d5739d;" parent="Gz3L1LVbqohKDapeBJeI-1" vertex="1">
          <mxGeometry x="30" y="-510" width="150" height="60" as="geometry" />
        </mxCell>
        <mxCell id="7O_3yWQSXOErDDaV36c1-2" value="" style="html=1;shadow=0;dashed=0;align=center;verticalAlign=middle;shape=mxgraph.arrows2.bendArrow;dy=15;dx=38;notch=0;arrowHead=55;rounded=1;fontSize=16;rotation=90;" parent="Gz3L1LVbqohKDapeBJeI-1" vertex="1">
          <mxGeometry x="135" y="-455" width="230" height="140" as="geometry" />
        </mxCell>
        <mxCell id="rClQ5j323vva6urSbet6-0" value="" style="html=1;shadow=0;dashed=0;align=center;verticalAlign=middle;shape=mxgraph.arrows2.bendArrow;dy=15;dx=38;notch=0;arrowHead=55;rounded=1;fontSize=16;rotation=90;" parent="Gz3L1LVbqohKDapeBJeI-1" vertex="1">
          <mxGeometry x="152.5" y="-377.5" width="135" height="80" as="geometry" />
        </mxCell>
        <mxCell id="rClQ5j323vva6urSbet6-1" value="" style="shape=flexArrow;endArrow=classic;startArrow=classic;html=1;fontSize=16;entryX=-0.01;entryY=0.826;entryDx=0;entryDy=0;entryPerimeter=0;" parent="Gz3L1LVbqohKDapeBJeI-1" edge="1">
          <mxGeometry width="50" height="50" relative="1" as="geometry">
            <mxPoint x="612.0999999999999" y="70.22000000000023" as="sourcePoint" />
            <mxPoint x="660" y="69.99999999999997" as="targetPoint" />
          </mxGeometry>
        </mxCell>
        <mxCell id="rClQ5j323vva6urSbet6-2" value="" style="shape=flexArrow;endArrow=classic;startArrow=classic;html=1;fontSize=16;entryX=-0.01;entryY=0.826;entryDx=0;entryDy=0;entryPerimeter=0;" parent="Gz3L1LVbqohKDapeBJeI-1" edge="1">
          <mxGeometry width="50" height="50" relative="1" as="geometry">
            <mxPoint x="104.60000000000036" y="-235.36999999999972" as="sourcePoint" />
            <mxPoint x="152.5" y="-235.59000000000043" as="targetPoint" />
          </mxGeometry>
        </mxCell>
        <mxCell id="wLoE-hE-7E3JoY2Qd5hF-0" value="&lt;font color=&quot;#000099&quot;&gt;&lt;b&gt;E2E&lt;/b&gt;&lt;br&gt;Service&lt;br&gt;Management&lt;br&gt;Domain&lt;/font&gt;" style="rounded=0;whiteSpace=wrap;html=1;fontSize=24;fillColor=#ffffff;strokeWidth=5;align=left;verticalAlign=top;" parent="Gz3L1LVbqohKDapeBJeI-1" vertex="1">
          <mxGeometry x="365" y="-735.5" width="1111" height="438" as="geometry" />
        </mxCell>
        <mxCell id="wLoE-hE-7E3JoY2Qd5hF-1" value="E2E&lt;br&gt;Intelligence Service" style="rounded=1;whiteSpace=wrap;html=1;strokeWidth=3;fillColor=#d5e8d4;fontSize=24;strokeColor=#82b366;" parent="Gz3L1LVbqohKDapeBJeI-1" vertex="1">
          <mxGeometry x="570" y="-720" width="124.12" height="84.5" as="geometry" />
        </mxCell>
        <mxCell id="wLoE-hE-7E3JoY2Qd5hF-2" value="E2E &lt;br&gt;Security&lt;br&gt;Orchestrator" style="rounded=1;whiteSpace=wrap;html=1;strokeWidth=3;fillColor=#dae8fc;fontSize=24;strokeColor=#6c8ebf;" parent="Gz3L1LVbqohKDapeBJeI-1" vertex="1">
          <mxGeometry x="757" y="-720" width="150" height="84.5" as="geometry" />
        </mxCell>
        <mxCell id="wLoE-hE-7E3JoY2Qd5hF-3" value="E2E&lt;br&gt;Policy &amp;amp; SSLA" style="rounded=1;whiteSpace=wrap;html=1;strokeWidth=3;fillColor=#fff2cc;fontSize=24;strokeColor=#d6b656;" parent="Gz3L1LVbqohKDapeBJeI-1" vertex="1">
          <mxGeometry x="937" y="-720" width="150" height="84.5" as="geometry" />
        </mxCell>
        <mxCell id="wLoE-hE-7E3JoY2Qd5hF-4" value="&lt;font style=&quot;font-size: 33px&quot;&gt;&lt;b&gt;Domain&lt;/b&gt; Integration Fabric&lt;/font&gt;" style="rounded=1;whiteSpace=wrap;html=1;" parent="Gz3L1LVbqohKDapeBJeI-1" vertex="1">
          <mxGeometry x="520" y="-527.5" width="610" height="70" as="geometry" />
        </mxCell>
        <mxCell id="wLoE-hE-7E3JoY2Qd5hF-5" value="" style="aspect=fixed;html=1;points=[];align=center;image;fontSize=12;image=img/lib/mscae/Service_Fabric.svg;" parent="Gz3L1LVbqohKDapeBJeI-1" vertex="1">
          <mxGeometry x="532.1165217391305" y="-512.45" width="39.89130434782608" height="39.89130434782608" as="geometry" />
        </mxCell>
        <mxCell id="wLoE-hE-7E3JoY2Qd5hF-6" value="Data&lt;br&gt;Services" style="strokeWidth=2;html=1;shape=mxgraph.flowchart.database;whiteSpace=wrap;fontSize=24;verticalAlign=bottom;labelPosition=center;verticalLabelPosition=top;align=center;" parent="Gz3L1LVbqohKDapeBJeI-1" vertex="1">
          <mxGeometry x="380" y="-527.5" width="95" height="70" as="geometry" />
        </mxCell>
        <mxCell id="wLoE-hE-7E3JoY2Qd5hF-7" value="&lt;font style=&quot;font-size: 23px&quot;&gt;E2E Service &lt;br&gt;Management Domain&lt;/font&gt;" style="rounded=1;whiteSpace=wrap;html=1;verticalAlign=top;" parent="Gz3L1LVbqohKDapeBJeI-1" vertex="1">
          <mxGeometry x="1270" y="-587" width="190" height="250" as="geometry" />
        </mxCell>
        <mxCell id="wLoE-hE-7E3JoY2Qd5hF-8" value="NFVO" style="rounded=1;whiteSpace=wrap;html=1;fontSize=16;align=center;" parent="Gz3L1LVbqohKDapeBJeI-1" vertex="1">
          <mxGeometry x="1280" y="-487" width="120" height="60" as="geometry" />
        </mxCell>
        <mxCell id="wLoE-hE-7E3JoY2Qd5hF-9" value="NFVM" style="rounded=1;whiteSpace=wrap;html=1;fontSize=16;align=center;" parent="Gz3L1LVbqohKDapeBJeI-1" vertex="1">
          <mxGeometry x="1280" y="-404.5" width="120" height="60" as="geometry" />
        </mxCell>
        <mxCell id="wLoE-hE-7E3JoY2Qd5hF-17" value="" style="shape=flexArrow;endArrow=classic;startArrow=classic;html=1;fontSize=16;entryX=-0.01;entryY=0.826;entryDx=0;entryDy=0;entryPerimeter=0;" parent="Gz3L1LVbqohKDapeBJeI-1" edge="1">
          <mxGeometry width="50" height="50" relative="1" as="geometry">
            <mxPoint x="1132.1" y="-507.9899999999998" as="sourcePoint" />
            <mxPoint x="1180" y="-508.21000000000004" as="targetPoint" />
          </mxGeometry>
        </mxCell>
        <mxCell id="wLoE-hE-7E3JoY2Qd5hF-18" value="Security&amp;nbsp;&lt;br&gt;Proxy?" style="shape=providedRequiredInterface;html=1;verticalLabelPosition=top;fillColor=#ffcd28;fontSize=16;align=center;gradientColor=#ffa500;strokeColor=#d79b00;rotation=-180;horizontal=0;labelPosition=center;verticalAlign=bottom;" parent="Gz3L1LVbqohKDapeBJeI-1" vertex="1">
          <mxGeometry x="1180" y="-527.5" width="40" height="40" as="geometry" />
        </mxCell>
        <mxCell id="wLoE-hE-7E3JoY2Qd5hF-19" value="" style="shape=flexArrow;endArrow=classic;startArrow=classic;html=1;fontSize=16;entryX=-0.01;entryY=0.826;entryDx=0;entryDy=0;entryPerimeter=0;" parent="Gz3L1LVbqohKDapeBJeI-1" edge="1">
          <mxGeometry width="50" height="50" relative="1" as="geometry">
            <mxPoint x="1220" y="-507.9899999999998" as="sourcePoint" />
            <mxPoint x="1267.9" y="-508.21000000000004" as="targetPoint" />
          </mxGeometry>
        </mxCell>
        <mxCell id="wLoE-hE-7E3JoY2Qd5hF-20" value="" style="shape=flexArrow;endArrow=classic;startArrow=classic;html=1;fontSize=16;entryX=-0.01;entryY=0.826;entryDx=0;entryDy=0;entryPerimeter=0;" parent="Gz3L1LVbqohKDapeBJeI-1" source="wLoE-hE-7E3JoY2Qd5hF-18" edge="1">
          <mxGeometry width="50" height="50" relative="1" as="geometry">
            <mxPoint x="1222.1" y="-457.2799999999998" as="sourcePoint" />
            <mxPoint x="1270" y="-457.5" as="targetPoint" />
          </mxGeometry>
        </mxCell>
        <mxCell id="wLoE-hE-7E3JoY2Qd5hF-21" value="" style="shape=flexArrow;endArrow=classic;startArrow=classic;html=1;fontSize=16;entryX=-0.01;entryY=0.826;entryDx=0;entryDy=0;entryPerimeter=0;exitX=0.5;exitY=-0.25;exitDx=0;exitDy=0;exitPerimeter=0;" parent="Gz3L1LVbqohKDapeBJeI-1" source="wLoE-hE-7E3JoY2Qd5hF-18" edge="1">
          <mxGeometry width="50" height="50" relative="1" as="geometry">
            <mxPoint x="1219.9999999999998" y="-377.27999999999975" as="sourcePoint" />
            <mxPoint x="1267.9" y="-377.5" as="targetPoint" />
          </mxGeometry>
        </mxCell>
        <mxCell id="wLoE-hE-7E3JoY2Qd5hF-22" value="" style="shape=flexArrow;endArrow=classic;startArrow=classic;html=1;fontSize=16;entryX=0.167;entryY=0.007;entryDx=0;entryDy=0;entryPerimeter=0;" parent="Gz3L1LVbqohKDapeBJeI-1" target="wLoE-hE-7E3JoY2Qd5hF-4" edge="1">
          <mxGeometry width="50" height="50" relative="1" as="geometry">
            <mxPoint x="621.9799999999998" y="-625.7" as="sourcePoint" />
            <mxPoint x="793.03" y="-627" as="targetPoint" />
          </mxGeometry>
        </mxCell>
        <mxCell id="wLoE-hE-7E3JoY2Qd5hF-23" value="" style="shape=flexArrow;endArrow=classic;startArrow=classic;html=1;fontSize=16;entryX=0.167;entryY=0.007;entryDx=0;entryDy=0;entryPerimeter=0;" parent="Gz3L1LVbqohKDapeBJeI-1" edge="1">
          <mxGeometry width="50" height="50" relative="1" as="geometry">
            <mxPoint x="831.8199999999996" y="-626.19" as="sourcePoint" />
            <mxPoint x="831.7100000000004" y="-527.5" as="targetPoint" />
          </mxGeometry>
        </mxCell>
        <mxCell id="wLoE-hE-7E3JoY2Qd5hF-24" value="" style="shape=flexArrow;endArrow=classic;startArrow=classic;html=1;fontSize=16;entryX=0.167;entryY=0.007;entryDx=0;entryDy=0;entryPerimeter=0;" parent="Gz3L1LVbqohKDapeBJeI-1" edge="1">
          <mxGeometry width="50" height="50" relative="1" as="geometry">
            <mxPoint x="1011.8199999999997" y="-626.19" as="sourcePoint" />
            <mxPoint x="1011.7100000000005" y="-527.5" as="targetPoint" />
          </mxGeometry>
        </mxCell>
        <mxCell id="wLoE-hE-7E3JoY2Qd5hF-25" value="" style="shape=flexArrow;endArrow=classic;startArrow=classic;html=1;fontSize=16;gradientColor=#b3b3b3;fillColor=#f5f5f5;strokeColor=#666666;endWidth=55.714285714285715;endSize=11.12857142857143;startWidth=55.714285714285715;startSize=11.12857142857143;width=41.42857142857143;entryX=0.291;entryY=-0.043;entryDx=0;entryDy=0;entryPerimeter=0;" parent="Gz3L1LVbqohKDapeBJeI-1" target="GTs8w9uEP3nvRJxWN3Me-1" edge="1">
          <mxGeometry width="50" height="50" relative="1" as="geometry">
            <mxPoint x="761" y="-460" as="sourcePoint" />
            <mxPoint x="760.28" y="-302.48" as="targetPoint" />
          </mxGeometry>
        </mxCell>
        <mxCell id="SaNyundnWLQgvomM5lKo-18" value="Virtual" style="ellipse;shape=cloud;whiteSpace=wrap;html=1;strokeWidth=3;fillColor=#ffffff;fontSize=24;" parent="Gz3L1LVbqohKDapeBJeI-1" vertex="1">
          <mxGeometry x="162" y="698" width="268" height="114" as="geometry" />
        </mxCell>
        <mxCell id="SaNyundnWLQgvomM5lKo-20" value="XaaS" style="ellipse;shape=cloud;whiteSpace=wrap;html=1;strokeWidth=3;fillColor=#ffffff;fontSize=24;" parent="Gz3L1LVbqohKDapeBJeI-1" vertex="1">
          <mxGeometry x="697" y="703" width="268" height="114" as="geometry" />
        </mxCell>
        <mxCell id="wLoE-hE-7E3JoY2Qd5hF-26" value="" style="group;align=center;" parent="Gz3L1LVbqohKDapeBJeI-1" vertex="1" connectable="0">
          <mxGeometry x="20" y="560" width="2180" height="121" as="geometry" />
        </mxCell>
        <mxCell id="SaNyundnWLQgvomM5lKo-13" value="" style="rounded=0;whiteSpace=wrap;html=1;fontSize=24;fillColor=none;strokeWidth=5;align=left;verticalAlign=top;" parent="wLoE-hE-7E3JoY2Qd5hF-26" vertex="1">
          <mxGeometry x="94.68904244817375" y="11.277078085642302" width="2085.3109575518265" height="109.72292191435767" as="geometry" />
        </mxCell>
        <mxCell id="SaNyundnWLQgvomM5lKo-14" value="" style="rounded=0;whiteSpace=wrap;html=1;fontSize=24;fillColor=#ffffff;strokeWidth=5;align=left;verticalAlign=top;" parent="wLoE-hE-7E3JoY2Qd5hF-26" vertex="1">
          <mxGeometry x="47.344521224086876" y="6.7052896725440405" width="2078.8548864758145" height="109.72292191435767" as="geometry" />
        </mxCell>
        <mxCell id="SaNyundnWLQgvomM5lKo-17" value="Domain&lt;br&gt;Infrastructure&lt;br&gt;Resources" style="rounded=0;whiteSpace=wrap;html=1;fontSize=24;strokeWidth=5;align=right;verticalAlign=top;fillColor=#ffffff;" parent="wLoE-hE-7E3JoY2Qd5hF-26" vertex="1">
          <mxGeometry width="2078.8548864758145" height="109.72292191435767" as="geometry" />
        </mxCell>
        <mxCell id="SaNyundnWLQgvomM5lKo-19" value="Physical" style="ellipse;shape=cloud;whiteSpace=wrap;html=1;strokeWidth=3;fillColor=#ffffff;fontSize=24;" parent="wLoE-hE-7E3JoY2Qd5hF-26" vertex="1">
          <mxGeometry x="350" y="-4.279999999999964" width="268" height="114" as="geometry" />
        </mxCell>
        <mxCell id="wLoE-hE-7E3JoY2Qd5hF-30" value="" style="shape=flexArrow;endArrow=classic;startArrow=classic;html=1;fontSize=16;entryX=0.88;entryY=0.25;entryDx=0;entryDy=0;entryPerimeter=0;exitX=0.5;exitY=-0.25;exitDx=0;exitDy=0;exitPerimeter=0;fillColor=#ffffff;" parent="Gz3L1LVbqohKDapeBJeI-1" target="SaNyundnWLQgvomM5lKo-19" edge="1">
          <mxGeometry width="50" height="50" relative="1" as="geometry">
            <mxPoint x="869.1" y="280" as="sourcePoint" />
            <mxPoint x="937.0000000000001" y="380" as="targetPoint" />
            <Array as="points">
              <mxPoint x="900" y="490" />
            </Array>
          </mxGeometry>
        </mxCell>
      </root>
    </mxGraphModel>
  </diagram>
  <diagram name="MultiDomain of Jordi&#39;s view" id="DTtLC3KSyEEjaBMgJvAB">
    <mxGraphModel dx="1770" dy="1919" grid="1" gridSize="10" guides="1" tooltips="1" connect="1" arrows="1" fold="1" page="1" pageScale="1" pageWidth="1169" pageHeight="827" math="0" shadow="0">
      <root>
        <mxCell id="W3LztqFI7IO9FUA6SYYw-0" />
        <mxCell id="W3LztqFI7IO9FUA6SYYw-1" parent="W3LztqFI7IO9FUA6SYYw-0" />
        <mxCell id="W3LztqFI7IO9FUA6SYYw-2" value="&lt;font color=&quot;#000099&quot;&gt;Management&lt;br&gt;Domain&lt;br&gt;&lt;/font&gt;" style="rounded=0;whiteSpace=wrap;html=1;fontSize=24;strokeWidth=5;align=right;verticalAlign=top;fillColor=#ffffff;" parent="W3LztqFI7IO9FUA6SYYw-1" vertex="1">
          <mxGeometry x="570" y="-20" width="850" height="560.38" as="geometry" />
        </mxCell>
        <mxCell id="W3LztqFI7IO9FUA6SYYw-3" value="" style="group" parent="W3LztqFI7IO9FUA6SYYw-1" vertex="1" connectable="0">
          <mxGeometry x="580" y="270" width="260" height="260" as="geometry" />
        </mxCell>
        <mxCell id="W3LztqFI7IO9FUA6SYYw-4" value="Security Analytics&lt;br style=&quot;font-size: 23px&quot;&gt;Engine" style="rounded=1;whiteSpace=wrap;html=1;gradientColor=#97d077;fillColor=#d5e8d4;strokeColor=#82b366;labelPosition=center;verticalLabelPosition=middle;align=center;verticalAlign=top;fontSize=23;" parent="W3LztqFI7IO9FUA6SYYw-3" vertex="1">
          <mxGeometry x="-1" y="80" width="260" height="180" as="geometry" />
        </mxCell>
        <mxCell id="W3LztqFI7IO9FUA6SYYw-5" value="Anomaly Detection Service" style="rounded=1;whiteSpace=wrap;html=1;fillColor=#d5e8d4;strokeColor=#82b366;fontSize=16;" parent="W3LztqFI7IO9FUA6SYYw-3" vertex="1">
          <mxGeometry x="20" y="147" width="110" height="106" as="geometry" />
        </mxCell>
        <mxCell id="W3LztqFI7IO9FUA6SYYw-6" value="RCA Service" style="rounded=1;whiteSpace=wrap;html=1;fillColor=#d5e8d4;strokeColor=#82b366;fontSize=16;" parent="W3LztqFI7IO9FUA6SYYw-3" vertex="1">
          <mxGeometry x="139.94" y="147" width="110" height="106" as="geometry" />
        </mxCell>
        <mxCell id="W3LztqFI7IO9FUA6SYYw-7" value="Security&lt;br&gt;Intelligence&lt;br&gt;&lt;div&gt;&lt;span&gt;Engine&lt;/span&gt;&lt;/div&gt;" style="rounded=1;whiteSpace=wrap;html=1;gradientColor=#97d077;fillColor=#d5e8d4;strokeColor=#82b366;labelPosition=center;verticalLabelPosition=middle;align=center;verticalAlign=middle;fontSize=23;" parent="W3LztqFI7IO9FUA6SYYw-1" vertex="1">
          <mxGeometry x="590" y="230" width="130" height="99.19" as="geometry" />
        </mxCell>
        <mxCell id="W3LztqFI7IO9FUA6SYYw-8" value="&lt;div style=&quot;text-align: center&quot;&gt;&lt;span&gt;Security&lt;/span&gt;&lt;/div&gt;&lt;div style=&quot;text-align: center&quot;&gt;&lt;span&gt;Orchestrator&lt;/span&gt;&lt;/div&gt;" style="rounded=1;whiteSpace=wrap;html=1;gradientColor=#7ea6e0;fillColor=#dae8fc;strokeColor=#6c8ebf;labelPosition=center;verticalLabelPosition=middle;align=left;verticalAlign=middle;fontSize=23;" parent="W3LztqFI7IO9FUA6SYYw-1" vertex="1">
          <mxGeometry x="590" y="110" width="130" height="99.19" as="geometry" />
        </mxCell>
        <mxCell id="W3LztqFI7IO9FUA6SYYw-9" value="Policy &amp;amp;SLA&lt;br&gt;Management" style="rounded=1;whiteSpace=wrap;html=1;gradientColor=#ea6b66;fillColor=#f8cecc;strokeColor=#b85450;labelPosition=center;verticalLabelPosition=middle;align=center;verticalAlign=middle;fontSize=23;" parent="W3LztqFI7IO9FUA6SYYw-1" vertex="1">
          <mxGeometry x="590" y="-10" width="130" height="99.19" as="geometry" />
        </mxCell>
        <mxCell id="W3LztqFI7IO9FUA6SYYw-10" value="Data&lt;br&gt;Services" style="strokeWidth=2;html=1;shape=mxgraph.flowchart.database;whiteSpace=wrap;fontSize=24;verticalAlign=top;labelPosition=center;verticalLabelPosition=bottom;align=center;" parent="W3LztqFI7IO9FUA6SYYw-1" vertex="1">
          <mxGeometry x="1150" y="48.280453400503745" width="95" height="40.90680100755667" as="geometry" />
        </mxCell>
        <mxCell id="W3LztqFI7IO9FUA6SYYw-11" value="" style="group" parent="W3LztqFI7IO9FUA6SYYw-1" vertex="1" connectable="0">
          <mxGeometry x="890" y="-10" width="210" height="410" as="geometry" />
        </mxCell>
        <mxCell id="W3LztqFI7IO9FUA6SYYw-12" value="&lt;font style=&quot;font-size: 33px&quot;&gt;&lt;b&gt;Domain&lt;/b&gt; Integration Fabric&lt;/font&gt;" style="rounded=1;whiteSpace=wrap;html=1;" parent="W3LztqFI7IO9FUA6SYYw-11" vertex="1">
          <mxGeometry width="210" height="410.0000000000001" as="geometry" />
        </mxCell>
        <mxCell id="W3LztqFI7IO9FUA6SYYw-13" value="" style="aspect=fixed;html=1;points=[];align=center;image;fontSize=12;image=img/lib/mscae/Service_Fabric.svg;" parent="W3LztqFI7IO9FUA6SYYw-11" vertex="1">
          <mxGeometry x="155.0565217391304" width="26.834183400506472" height="26.834183400506472" as="geometry" />
        </mxCell>
        <mxCell id="W3LztqFI7IO9FUA6SYYw-14" value="" style="shape=flexArrow;endArrow=classic;startArrow=classic;html=1;fontSize=16;entryX=-0.01;entryY=0.826;entryDx=0;entryDy=0;entryPerimeter=0;" parent="W3LztqFI7IO9FUA6SYYw-1" target="W3LztqFI7IO9FUA6SYYw-12" edge="1">
          <mxGeometry width="50" height="50" relative="1" as="geometry">
            <mxPoint x="840" y="428" as="sourcePoint" />
            <mxPoint x="860" y="250" as="targetPoint" />
          </mxGeometry>
        </mxCell>
        <mxCell id="W3LztqFI7IO9FUA6SYYw-15" value="" style="shape=flexArrow;endArrow=classic;startArrow=classic;html=1;fontSize=16;entryX=0.005;entryY=0.564;entryDx=0;entryDy=0;entryPerimeter=0;" parent="W3LztqFI7IO9FUA6SYYw-1" target="W3LztqFI7IO9FUA6SYYw-12" edge="1">
          <mxGeometry width="50" height="50" relative="1" as="geometry">
            <mxPoint x="720" y="290.22" as="sourcePoint" />
            <mxPoint x="767.9000000000001" y="290.0000000000002" as="targetPoint" />
          </mxGeometry>
        </mxCell>
        <mxCell id="W3LztqFI7IO9FUA6SYYw-16" value="" style="shape=flexArrow;endArrow=classic;startArrow=classic;html=1;fontSize=16;entryX=0.005;entryY=0.564;entryDx=0;entryDy=0;entryPerimeter=0;" parent="W3LztqFI7IO9FUA6SYYw-1" edge="1">
          <mxGeometry width="50" height="50" relative="1" as="geometry">
            <mxPoint x="718.95" y="160.24000000000004" as="sourcePoint" />
            <mxPoint x="890" y="158.94000000000008" as="targetPoint" />
          </mxGeometry>
        </mxCell>
        <mxCell id="W3LztqFI7IO9FUA6SYYw-17" value="" style="shape=flexArrow;endArrow=classic;startArrow=classic;html=1;fontSize=16;entryX=0.005;entryY=0.564;entryDx=0;entryDy=0;entryPerimeter=0;" parent="W3LztqFI7IO9FUA6SYYw-1" edge="1">
          <mxGeometry width="50" height="50" relative="1" as="geometry">
            <mxPoint x="718.95" y="49.58000000000001" as="sourcePoint" />
            <mxPoint x="890" y="48.28000000000006" as="targetPoint" />
          </mxGeometry>
        </mxCell>
        <mxCell id="W3LztqFI7IO9FUA6SYYw-18" value="Security&amp;nbsp;&lt;br&gt;UnifiedAPI" style="shape=providedRequiredInterface;html=1;verticalLabelPosition=top;fillColor=#ffcd28;fontSize=16;align=center;gradientColor=#ffa500;strokeColor=#d79b00;rotation=-180;horizontal=0;labelPosition=center;verticalAlign=bottom;" parent="W3LztqFI7IO9FUA6SYYw-1" vertex="1">
          <mxGeometry x="1150" y="280" width="40" height="40" as="geometry" />
        </mxCell>
        <mxCell id="W3LztqFI7IO9FUA6SYYw-19" value="" style="shape=flexArrow;endArrow=classic;startArrow=classic;html=1;fontSize=16;entryX=-0.01;entryY=0.826;entryDx=0;entryDy=0;entryPerimeter=0;" parent="W3LztqFI7IO9FUA6SYYw-1" edge="1">
          <mxGeometry width="50" height="50" relative="1" as="geometry">
            <mxPoint x="1102.1" y="299.51" as="sourcePoint" />
            <mxPoint x="1150" y="299.28999999999974" as="targetPoint" />
          </mxGeometry>
        </mxCell>
        <mxCell id="W3LztqFI7IO9FUA6SYYw-20" value="" style="shape=flexArrow;endArrow=classic;startArrow=classic;html=1;fontSize=16;entryX=-0.01;entryY=0.826;entryDx=0;entryDy=0;entryPerimeter=0;" parent="W3LztqFI7IO9FUA6SYYw-1" edge="1">
          <mxGeometry width="50" height="50" relative="1" as="geometry">
            <mxPoint x="1190" y="299.5100000000002" as="sourcePoint" />
            <mxPoint x="1237.9" y="299.28999999999996" as="targetPoint" />
          </mxGeometry>
        </mxCell>
        <mxCell id="W3LztqFI7IO9FUA6SYYw-21" value="" style="group" parent="W3LztqFI7IO9FUA6SYYw-1" vertex="1" connectable="0">
          <mxGeometry x="1240" y="170" width="120" height="300" as="geometry" />
        </mxCell>
        <mxCell id="W3LztqFI7IO9FUA6SYYw-22" value="Service Management Domain" style="rounded=1;whiteSpace=wrap;html=1;fontSize=16;align=center;verticalAlign=top;" parent="W3LztqFI7IO9FUA6SYYw-21" vertex="1">
          <mxGeometry width="120" height="300" as="geometry" />
        </mxCell>
        <mxCell id="W3LztqFI7IO9FUA6SYYw-23" value="NFVO" style="rounded=1;whiteSpace=wrap;html=1;fontSize=16;align=center;" parent="W3LztqFI7IO9FUA6SYYw-21" vertex="1">
          <mxGeometry y="170" width="120" height="47.27" as="geometry" />
        </mxCell>
        <mxCell id="W3LztqFI7IO9FUA6SYYw-24" value="VNFM" style="rounded=1;whiteSpace=wrap;html=1;fontSize=16;align=center;" parent="W3LztqFI7IO9FUA6SYYw-21" vertex="1">
          <mxGeometry y="230" width="120" height="56.36" as="geometry" />
        </mxCell>
        <mxCell id="W3LztqFI7IO9FUA6SYYw-25" value="Service Orch/&lt;br&gt;Manager" style="rounded=1;whiteSpace=wrap;html=1;fontSize=16;align=center;" parent="W3LztqFI7IO9FUA6SYYw-21" vertex="1">
          <mxGeometry y="68.1809090909091" width="120" height="81.81818181818181" as="geometry" />
        </mxCell>
        <mxCell id="W3LztqFI7IO9FUA6SYYw-26" value="" style="shape=flexArrow;endArrow=classic;startArrow=classic;html=1;fontSize=16;entryX=-0.01;entryY=0.826;entryDx=0;entryDy=0;entryPerimeter=0;" parent="W3LztqFI7IO9FUA6SYYw-1" source="W3LztqFI7IO9FUA6SYYw-18" edge="1">
          <mxGeometry width="50" height="50" relative="1" as="geometry">
            <mxPoint x="1192.1" y="350.2200000000002" as="sourcePoint" />
            <mxPoint x="1240" y="349.99999999999994" as="targetPoint" />
          </mxGeometry>
        </mxCell>
        <mxCell id="W3LztqFI7IO9FUA6SYYw-27" value="" style="shape=flexArrow;endArrow=classic;startArrow=classic;html=1;fontSize=16;entryX=-0.01;entryY=0.826;entryDx=0;entryDy=0;entryPerimeter=0;exitX=0.5;exitY=-0.25;exitDx=0;exitDy=0;exitPerimeter=0;" parent="W3LztqFI7IO9FUA6SYYw-1" source="W3LztqFI7IO9FUA6SYYw-18" edge="1">
          <mxGeometry width="50" height="50" relative="1" as="geometry">
            <mxPoint x="1190" y="430.22000000000025" as="sourcePoint" />
            <mxPoint x="1237.9" y="430" as="targetPoint" />
          </mxGeometry>
        </mxCell>
        <mxCell id="W3LztqFI7IO9FUA6SYYw-28" value="" style="group;fontSize=24;" parent="W3LztqFI7IO9FUA6SYYw-1" vertex="1" connectable="0">
          <mxGeometry x="154" y="-270" width="2086" height="70" as="geometry" />
        </mxCell>
        <mxCell id="W3LztqFI7IO9FUA6SYYw-29" value="&lt;font style=&quot;font-size: 33px&quot;&gt;&lt;b&gt;Cross/Inter Domain&lt;/b&gt; Integration Fabric&lt;/font&gt;" style="rounded=1;whiteSpace=wrap;html=1;" parent="W3LztqFI7IO9FUA6SYYw-28" vertex="1">
          <mxGeometry width="2086" height="70" as="geometry" />
        </mxCell>
        <mxCell id="W3LztqFI7IO9FUA6SYYw-30" value="" style="aspect=fixed;html=1;points=[];align=center;image;fontSize=12;image=img/lib/mscae/Service_Fabric.svg;" parent="W3LztqFI7IO9FUA6SYYw-28" vertex="1">
          <mxGeometry x="45.347826086956516" y="10" width="50" height="50" as="geometry" />
        </mxCell>
        <mxCell id="W3LztqFI7IO9FUA6SYYw-31" value="Cross Domain Data&lt;br&gt;Services" style="strokeWidth=2;html=1;shape=mxgraph.flowchart.database;whiteSpace=wrap;fontSize=24;verticalAlign=top;labelPosition=center;verticalLabelPosition=bottom;align=center;" parent="W3LztqFI7IO9FUA6SYYw-1" vertex="1">
          <mxGeometry x="5" y="-280" width="95" height="70" as="geometry" />
        </mxCell>
        <mxCell id="W3LztqFI7IO9FUA6SYYw-32" value="" style="shape=flexArrow;endArrow=classic;startArrow=classic;html=1;fontSize=16;gradientColor=#b3b3b3;fillColor=#f5f5f5;strokeColor=#666666;endWidth=55.714285714285715;endSize=11.12857142857143;startWidth=55.714285714285715;startSize=11.12857142857143;width=41.42857142857143;" parent="W3LztqFI7IO9FUA6SYYw-1" edge="1">
          <mxGeometry width="50" height="50" relative="1" as="geometry">
            <mxPoint x="1004" y="-197" as="sourcePoint" />
            <mxPoint x="1004" y="-11" as="targetPoint" />
          </mxGeometry>
        </mxCell>
        <mxCell id="W3LztqFI7IO9FUA6SYYw-33" value="OTT" style="rounded=1;whiteSpace=wrap;html=1;strokeWidth=3;fillColor=#f8cecc;fontSize=24;strokeColor=#b85450;" parent="W3LztqFI7IO9FUA6SYYw-1" vertex="1">
          <mxGeometry x="30" y="-420" width="150" height="60" as="geometry" />
        </mxCell>
        <mxCell id="W3LztqFI7IO9FUA6SYYw-34" value="Other Operators" style="rounded=1;whiteSpace=wrap;html=1;strokeWidth=3;fillColor=#e6d0de;fontSize=24;strokeColor=#996185;gradientColor=#d5739d;" parent="W3LztqFI7IO9FUA6SYYw-1" vertex="1">
          <mxGeometry x="30" y="-510" width="150" height="60" as="geometry" />
        </mxCell>
        <mxCell id="W3LztqFI7IO9FUA6SYYw-35" value="" style="html=1;shadow=0;dashed=0;align=center;verticalAlign=middle;shape=mxgraph.arrows2.bendArrow;dy=15;dx=38;notch=0;arrowHead=55;rounded=1;fontSize=16;rotation=90;" parent="W3LztqFI7IO9FUA6SYYw-1" vertex="1">
          <mxGeometry x="135" y="-455" width="230" height="140" as="geometry" />
        </mxCell>
        <mxCell id="W3LztqFI7IO9FUA6SYYw-36" value="" style="html=1;shadow=0;dashed=0;align=center;verticalAlign=middle;shape=mxgraph.arrows2.bendArrow;dy=15;dx=38;notch=0;arrowHead=55;rounded=1;fontSize=16;rotation=90;" parent="W3LztqFI7IO9FUA6SYYw-1" vertex="1">
          <mxGeometry x="152.5" y="-377.5" width="135" height="80" as="geometry" />
        </mxCell>
        <mxCell id="W3LztqFI7IO9FUA6SYYw-37" value="" style="shape=flexArrow;endArrow=classic;startArrow=classic;html=1;fontSize=16;entryX=-0.01;entryY=0.826;entryDx=0;entryDy=0;entryPerimeter=0;" parent="W3LztqFI7IO9FUA6SYYw-1" edge="1">
          <mxGeometry width="50" height="50" relative="1" as="geometry">
            <mxPoint x="1102.1" y="70.22000000000023" as="sourcePoint" />
            <mxPoint x="1150" y="69.99999999999997" as="targetPoint" />
          </mxGeometry>
        </mxCell>
        <mxCell id="W3LztqFI7IO9FUA6SYYw-38" value="" style="shape=flexArrow;endArrow=classic;startArrow=classic;html=1;fontSize=16;entryX=-0.01;entryY=0.826;entryDx=0;entryDy=0;entryPerimeter=0;" parent="W3LztqFI7IO9FUA6SYYw-1" edge="1">
          <mxGeometry width="50" height="50" relative="1" as="geometry">
            <mxPoint x="104.60000000000036" y="-235.36999999999972" as="sourcePoint" />
            <mxPoint x="152.5" y="-235.59000000000043" as="targetPoint" />
          </mxGeometry>
        </mxCell>
        <mxCell id="W3LztqFI7IO9FUA6SYYw-39" value="&lt;font color=&quot;#000099&quot;&gt;&lt;b&gt;E2E&lt;/b&gt;&lt;br&gt;Service&lt;br&gt;Management&lt;br&gt;Domain&lt;/font&gt;" style="rounded=0;whiteSpace=wrap;html=1;fontSize=24;fillColor=#ffffff;strokeWidth=5;align=left;verticalAlign=top;" parent="W3LztqFI7IO9FUA6SYYw-1" vertex="1">
          <mxGeometry x="365" y="-735.5" width="1111" height="438" as="geometry" />
        </mxCell>
        <mxCell id="W3LztqFI7IO9FUA6SYYw-40" value="E2E&lt;br&gt;Security&lt;br&gt;Intelligence Service" style="rounded=1;whiteSpace=wrap;html=1;strokeWidth=3;fillColor=#d5e8d4;fontSize=24;strokeColor=#82b366;" parent="W3LztqFI7IO9FUA6SYYw-1" vertex="1">
          <mxGeometry x="570" y="-720" width="124.12" height="110" as="geometry" />
        </mxCell>
        <mxCell id="W3LztqFI7IO9FUA6SYYw-41" value="E2E &lt;br&gt;Security&lt;br&gt;Orchestrator" style="rounded=1;whiteSpace=wrap;html=1;strokeWidth=3;fillColor=#dae8fc;fontSize=24;strokeColor=#6c8ebf;" parent="W3LztqFI7IO9FUA6SYYw-1" vertex="1">
          <mxGeometry x="757" y="-720" width="150" height="84.5" as="geometry" />
        </mxCell>
        <mxCell id="W3LztqFI7IO9FUA6SYYw-42" value="E2E&lt;br&gt;Policy &amp;amp; SSLA" style="rounded=1;whiteSpace=wrap;html=1;strokeWidth=3;fillColor=#fff2cc;fontSize=24;strokeColor=#d6b656;" parent="W3LztqFI7IO9FUA6SYYw-1" vertex="1">
          <mxGeometry x="937" y="-720" width="150" height="84.5" as="geometry" />
        </mxCell>
        <mxCell id="W3LztqFI7IO9FUA6SYYw-43" value="&lt;font style=&quot;font-size: 33px&quot;&gt;&lt;b&gt;Domain&lt;/b&gt; Integration Fabric&lt;/font&gt;" style="rounded=1;whiteSpace=wrap;html=1;" parent="W3LztqFI7IO9FUA6SYYw-1" vertex="1">
          <mxGeometry x="520" y="-527.5" width="610" height="70" as="geometry" />
        </mxCell>
        <mxCell id="W3LztqFI7IO9FUA6SYYw-44" value="" style="aspect=fixed;html=1;points=[];align=center;image;fontSize=12;image=img/lib/mscae/Service_Fabric.svg;" parent="W3LztqFI7IO9FUA6SYYw-1" vertex="1">
          <mxGeometry x="532.1165217391305" y="-512.45" width="39.89130434782608" height="39.89130434782608" as="geometry" />
        </mxCell>
        <mxCell id="W3LztqFI7IO9FUA6SYYw-45" value="Data&lt;br&gt;Services" style="strokeWidth=2;html=1;shape=mxgraph.flowchart.database;whiteSpace=wrap;fontSize=24;verticalAlign=bottom;labelPosition=center;verticalLabelPosition=top;align=center;" parent="W3LztqFI7IO9FUA6SYYw-1" vertex="1">
          <mxGeometry x="380" y="-527.5" width="95" height="70" as="geometry" />
        </mxCell>
        <mxCell id="W3LztqFI7IO9FUA6SYYw-46" value="&lt;font style=&quot;font-size: 23px&quot;&gt;E2E&lt;br&gt;Management Functions&lt;/font&gt;" style="rounded=1;whiteSpace=wrap;html=1;verticalAlign=top;" parent="W3LztqFI7IO9FUA6SYYw-1" vertex="1">
          <mxGeometry x="1270" y="-587" width="190" height="250" as="geometry" />
        </mxCell>
        <mxCell id="W3LztqFI7IO9FUA6SYYw-47" value="NFVO" style="rounded=1;whiteSpace=wrap;html=1;fontSize=16;align=center;" parent="W3LztqFI7IO9FUA6SYYw-1" vertex="1">
          <mxGeometry x="1280" y="-487" width="120" height="60" as="geometry" />
        </mxCell>
        <mxCell id="W3LztqFI7IO9FUA6SYYw-48" value="VNFM" style="rounded=1;whiteSpace=wrap;html=1;fontSize=16;align=center;" parent="W3LztqFI7IO9FUA6SYYw-1" vertex="1">
          <mxGeometry x="1280" y="-404.5" width="120" height="60" as="geometry" />
        </mxCell>
        <mxCell id="W3LztqFI7IO9FUA6SYYw-49" value="" style="shape=flexArrow;endArrow=classic;startArrow=classic;html=1;fontSize=16;entryX=-0.01;entryY=0.826;entryDx=0;entryDy=0;entryPerimeter=0;" parent="W3LztqFI7IO9FUA6SYYw-1" edge="1">
          <mxGeometry width="50" height="50" relative="1" as="geometry">
            <mxPoint x="1132.1" y="-507.9899999999998" as="sourcePoint" />
            <mxPoint x="1180" y="-508.21000000000004" as="targetPoint" />
          </mxGeometry>
        </mxCell>
        <mxCell id="W3LztqFI7IO9FUA6SYYw-50" value="Security&amp;nbsp;&lt;br&gt;Unified API" style="shape=providedRequiredInterface;html=1;verticalLabelPosition=top;fillColor=#ffcd28;fontSize=16;align=center;gradientColor=#ffa500;strokeColor=#d79b00;rotation=-180;horizontal=0;labelPosition=center;verticalAlign=bottom;" parent="W3LztqFI7IO9FUA6SYYw-1" vertex="1">
          <mxGeometry x="1180" y="-527.5" width="40" height="40" as="geometry" />
        </mxCell>
        <mxCell id="W3LztqFI7IO9FUA6SYYw-51" value="" style="shape=flexArrow;endArrow=classic;startArrow=classic;html=1;fontSize=16;entryX=-0.01;entryY=0.826;entryDx=0;entryDy=0;entryPerimeter=0;" parent="W3LztqFI7IO9FUA6SYYw-1" edge="1">
          <mxGeometry width="50" height="50" relative="1" as="geometry">
            <mxPoint x="1220" y="-507.9899999999998" as="sourcePoint" />
            <mxPoint x="1267.9" y="-508.21000000000004" as="targetPoint" />
          </mxGeometry>
        </mxCell>
        <mxCell id="W3LztqFI7IO9FUA6SYYw-52" value="" style="shape=flexArrow;endArrow=classic;startArrow=classic;html=1;fontSize=16;entryX=-0.01;entryY=0.826;entryDx=0;entryDy=0;entryPerimeter=0;" parent="W3LztqFI7IO9FUA6SYYw-1" source="W3LztqFI7IO9FUA6SYYw-50" edge="1">
          <mxGeometry width="50" height="50" relative="1" as="geometry">
            <mxPoint x="1222.1" y="-457.2799999999998" as="sourcePoint" />
            <mxPoint x="1270" y="-457.5" as="targetPoint" />
          </mxGeometry>
        </mxCell>
        <mxCell id="W3LztqFI7IO9FUA6SYYw-53" value="" style="shape=flexArrow;endArrow=classic;startArrow=classic;html=1;fontSize=16;entryX=-0.01;entryY=0.826;entryDx=0;entryDy=0;entryPerimeter=0;exitX=0.5;exitY=-0.25;exitDx=0;exitDy=0;exitPerimeter=0;" parent="W3LztqFI7IO9FUA6SYYw-1" source="W3LztqFI7IO9FUA6SYYw-50" edge="1">
          <mxGeometry width="50" height="50" relative="1" as="geometry">
            <mxPoint x="1219.9999999999998" y="-377.27999999999975" as="sourcePoint" />
            <mxPoint x="1267.9" y="-377.5" as="targetPoint" />
          </mxGeometry>
        </mxCell>
        <mxCell id="W3LztqFI7IO9FUA6SYYw-54" value="" style="shape=flexArrow;endArrow=classic;startArrow=classic;html=1;fontSize=16;entryX=0.167;entryY=0.007;entryDx=0;entryDy=0;entryPerimeter=0;" parent="W3LztqFI7IO9FUA6SYYw-1" target="W3LztqFI7IO9FUA6SYYw-43" edge="1">
          <mxGeometry width="50" height="50" relative="1" as="geometry">
            <mxPoint x="622" y="-610" as="sourcePoint" />
            <mxPoint x="793.03" y="-627" as="targetPoint" />
          </mxGeometry>
        </mxCell>
        <mxCell id="W3LztqFI7IO9FUA6SYYw-55" value="" style="shape=flexArrow;endArrow=classic;startArrow=classic;html=1;fontSize=16;entryX=0.167;entryY=0.007;entryDx=0;entryDy=0;entryPerimeter=0;" parent="W3LztqFI7IO9FUA6SYYw-1" edge="1">
          <mxGeometry width="50" height="50" relative="1" as="geometry">
            <mxPoint x="831.8199999999996" y="-626.19" as="sourcePoint" />
            <mxPoint x="831.7100000000004" y="-527.5" as="targetPoint" />
          </mxGeometry>
        </mxCell>
        <mxCell id="W3LztqFI7IO9FUA6SYYw-56" value="" style="shape=flexArrow;endArrow=classic;startArrow=classic;html=1;fontSize=16;entryX=0.167;entryY=0.007;entryDx=0;entryDy=0;entryPerimeter=0;" parent="W3LztqFI7IO9FUA6SYYw-1" edge="1">
          <mxGeometry width="50" height="50" relative="1" as="geometry">
            <mxPoint x="1011.8199999999997" y="-626.19" as="sourcePoint" />
            <mxPoint x="1011.7100000000005" y="-527.5" as="targetPoint" />
          </mxGeometry>
        </mxCell>
        <mxCell id="W3LztqFI7IO9FUA6SYYw-57" value="" style="shape=flexArrow;endArrow=classic;startArrow=classic;html=1;fontSize=16;gradientColor=#b3b3b3;fillColor=#f5f5f5;strokeColor=#666666;endWidth=55.714285714285715;endSize=11.12857142857143;startWidth=55.714285714285715;startSize=11.12857142857143;width=41.42857142857143;entryX=0.291;entryY=-0.043;entryDx=0;entryDy=0;entryPerimeter=0;" parent="W3LztqFI7IO9FUA6SYYw-1" target="W3LztqFI7IO9FUA6SYYw-29" edge="1">
          <mxGeometry width="50" height="50" relative="1" as="geometry">
            <mxPoint x="761" y="-460" as="sourcePoint" />
            <mxPoint x="760.28" y="-302.48" as="targetPoint" />
          </mxGeometry>
        </mxCell>
        <mxCell id="W3LztqFI7IO9FUA6SYYw-60" value="" style="group;align=center;" parent="W3LztqFI7IO9FUA6SYYw-1" vertex="1" connectable="0">
          <mxGeometry x="20" y="590" width="2180" height="200" as="geometry" />
        </mxCell>
        <mxCell id="W3LztqFI7IO9FUA6SYYw-95" value="" style="group" parent="W3LztqFI7IO9FUA6SYYw-60" vertex="1" connectable="0">
          <mxGeometry width="2180" height="199.99999999999997" as="geometry" />
        </mxCell>
        <mxCell id="W3LztqFI7IO9FUA6SYYw-61" value="" style="rounded=0;whiteSpace=wrap;html=1;fontSize=24;fillColor=none;strokeWidth=5;align=left;verticalAlign=top;" parent="W3LztqFI7IO9FUA6SYYw-95" vertex="1">
          <mxGeometry x="94.68904244817374" y="18.63979848866496" width="2085.310957551826" height="181.360201511335" as="geometry" />
        </mxCell>
        <mxCell id="W3LztqFI7IO9FUA6SYYw-62" value="" style="rounded=0;whiteSpace=wrap;html=1;fontSize=24;fillColor=#ffffff;strokeWidth=5;align=left;verticalAlign=top;" parent="W3LztqFI7IO9FUA6SYYw-95" vertex="1">
          <mxGeometry x="47.34452122408687" y="11.083123425692628" width="2078.854886475814" height="181.360201511335" as="geometry" />
        </mxCell>
        <mxCell id="W3LztqFI7IO9FUA6SYYw-63" value="Domain&lt;br&gt;Infrastructure&lt;br&gt;Resources" style="rounded=0;whiteSpace=wrap;html=1;fontSize=24;strokeWidth=5;align=right;verticalAlign=top;fillColor=#ffffff;" parent="W3LztqFI7IO9FUA6SYYw-95" vertex="1">
          <mxGeometry width="2078.854886475814" height="181.360201511335" as="geometry" />
        </mxCell>
        <mxCell id="W3LztqFI7IO9FUA6SYYw-94" value="vCORE" style="ellipse;shape=cloud;whiteSpace=wrap;html=1;strokeWidth=3;fillColor=#fff2cc;fontSize=24;strokeColor=#d6b656;" parent="W3LztqFI7IO9FUA6SYYw-95" vertex="1">
          <mxGeometry x="1466" width="268" height="84.36521739130434" as="geometry" />
        </mxCell>
        <mxCell id="W3LztqFI7IO9FUA6SYYw-96" value="TENANT1" style="ellipse;shape=cloud;whiteSpace=wrap;html=1;strokeWidth=3;fillColor=#f8cecc;fontSize=24;strokeColor=#b85450;" parent="W3LztqFI7IO9FUA6SYYw-95" vertex="1">
          <mxGeometry x="1476" y="67.1391304347826" width="268" height="84.36521739130434" as="geometry" />
        </mxCell>
        <mxCell id="W3LztqFI7IO9FUA6SYYw-106" value="TENANT2" style="ellipse;shape=cloud;whiteSpace=wrap;html=1;strokeWidth=3;fillColor=#e1d5e7;fontSize=24;strokeColor=#9673a6;" parent="W3LztqFI7IO9FUA6SYYw-95" vertex="1">
          <mxGeometry x="1476" y="108.07826086956521" width="268" height="84.36521739130434" as="geometry" />
        </mxCell>
        <mxCell id="2vcxKPNX1O3ixUKFI9yv-0" value="" style="points=[[0.005,0.09,0],[0.08,0,0],[0.76,0.25,0],[1,0.92,0],[0.91,0.995,0],[0.57,0.995,0],[0.045,0.955,0],[0.005,0.43,0]];verticalLabelPosition=bottom;html=1;verticalAlign=top;aspect=fixed;align=center;pointerEvents=1;shape=mxgraph.cisco19.3g_4g_indicator;fillColor=#d80073;strokeColor=#A50040;direction=north;rotation=-180;fontColor=#ffffff;flipV=1;flipH=1;" parent="W3LztqFI7IO9FUA6SYYw-95" vertex="1">
          <mxGeometry x="260" y="11.079999999999988" width="50" height="50" as="geometry" />
        </mxCell>
        <mxCell id="2vcxKPNX1O3ixUKFI9yv-1" value="" style="points=[[0.005,0.09,0],[0.08,0,0],[0.76,0.25,0],[1,0.92,0],[0.91,0.995,0],[0.57,0.995,0],[0.045,0.955,0],[0.005,0.43,0]];verticalLabelPosition=bottom;html=1;verticalAlign=top;aspect=fixed;align=center;pointerEvents=1;shape=mxgraph.cisco19.3g_4g_indicator;fillColor=#aa00ff;strokeColor=#7700CC;direction=south;rotation=-180;flipV=1;fontColor=#ffffff;" parent="W3LztqFI7IO9FUA6SYYw-95" vertex="1">
          <mxGeometry x="260" y="108.07999999999998" width="50" height="50" as="geometry" />
        </mxCell>
        <mxCell id="BVivG6dMEHyoBw1YH2q_-14" style="edgeStyle=orthogonalEdgeStyle;rounded=0;orthogonalLoop=1;jettySize=auto;html=1;endArrow=none;endFill=0;" parent="W3LztqFI7IO9FUA6SYYw-95" source="BVivG6dMEHyoBw1YH2q_-1" target="BVivG6dMEHyoBw1YH2q_-3" edge="1">
          <mxGeometry relative="1" as="geometry">
            <Array as="points">
              <mxPoint x="726" y="20" />
            </Array>
          </mxGeometry>
        </mxCell>
        <mxCell id="BVivG6dMEHyoBw1YH2q_-1" value="" style="verticalLabelPosition=bottom;aspect=fixed;html=1;verticalAlign=top;strokeColor=none;align=center;outlineConnect=0;shape=mxgraph.citrix.switch;" parent="W3LztqFI7IO9FUA6SYYw-95" vertex="1">
          <mxGeometry x="680" y="44" width="92" height="41.5" as="geometry" />
        </mxCell>
        <mxCell id="BVivG6dMEHyoBw1YH2q_-8" style="edgeStyle=orthogonalEdgeStyle;rounded=0;orthogonalLoop=1;jettySize=auto;html=1;endArrow=none;endFill=0;" parent="W3LztqFI7IO9FUA6SYYw-95" source="BVivG6dMEHyoBw1YH2q_-2" target="BVivG6dMEHyoBw1YH2q_-1" edge="1">
          <mxGeometry relative="1" as="geometry" />
        </mxCell>
        <mxCell id="BVivG6dMEHyoBw1YH2q_-10" style="edgeStyle=orthogonalEdgeStyle;rounded=0;orthogonalLoop=1;jettySize=auto;html=1;endArrow=none;endFill=0;" parent="W3LztqFI7IO9FUA6SYYw-95" source="BVivG6dMEHyoBw1YH2q_-2" target="BVivG6dMEHyoBw1YH2q_-3" edge="1">
          <mxGeometry relative="1" as="geometry">
            <Array as="points">
              <mxPoint x="926" y="39" />
            </Array>
          </mxGeometry>
        </mxCell>
        <mxCell id="BVivG6dMEHyoBw1YH2q_-11" style="edgeStyle=orthogonalEdgeStyle;rounded=0;orthogonalLoop=1;jettySize=auto;html=1;endArrow=none;endFill=0;" parent="W3LztqFI7IO9FUA6SYYw-95" source="BVivG6dMEHyoBw1YH2q_-2" target="BVivG6dMEHyoBw1YH2q_-4" edge="1">
          <mxGeometry relative="1" as="geometry">
            <Array as="points">
              <mxPoint x="926" y="150" />
              <mxPoint x="1056" y="150" />
            </Array>
          </mxGeometry>
        </mxCell>
        <mxCell id="BVivG6dMEHyoBw1YH2q_-2" value="" style="verticalLabelPosition=bottom;aspect=fixed;html=1;verticalAlign=top;strokeColor=none;align=center;outlineConnect=0;shape=mxgraph.citrix.switch;" parent="W3LztqFI7IO9FUA6SYYw-95" vertex="1">
          <mxGeometry x="880" y="79.25" width="92" height="41.5" as="geometry" />
        </mxCell>
        <mxCell id="BVivG6dMEHyoBw1YH2q_-12" style="edgeStyle=orthogonalEdgeStyle;rounded=0;orthogonalLoop=1;jettySize=auto;html=1;endArrow=none;endFill=0;" parent="W3LztqFI7IO9FUA6SYYw-95" source="BVivG6dMEHyoBw1YH2q_-4" target="BVivG6dMEHyoBw1YH2q_-3" edge="1">
          <mxGeometry relative="1" as="geometry" />
        </mxCell>
        <mxCell id="BVivG6dMEHyoBw1YH2q_-4" value="" style="verticalLabelPosition=bottom;aspect=fixed;html=1;verticalAlign=top;strokeColor=none;align=center;outlineConnect=0;shape=mxgraph.citrix.switch;" parent="W3LztqFI7IO9FUA6SYYw-95" vertex="1">
          <mxGeometry x="1010" y="129.51" width="92" height="41.5" as="geometry" />
        </mxCell>
        <mxCell id="BVivG6dMEHyoBw1YH2q_-9" style="edgeStyle=orthogonalEdgeStyle;rounded=0;orthogonalLoop=1;jettySize=auto;html=1;endArrow=none;endFill=0;" parent="W3LztqFI7IO9FUA6SYYw-95" source="BVivG6dMEHyoBw1YH2q_-5" target="BVivG6dMEHyoBw1YH2q_-2" edge="1">
          <mxGeometry relative="1" as="geometry">
            <Array as="points">
              <mxPoint x="826" y="142" />
              <mxPoint x="826" y="110" />
            </Array>
          </mxGeometry>
        </mxCell>
        <mxCell id="BVivG6dMEHyoBw1YH2q_-13" style="edgeStyle=orthogonalEdgeStyle;rounded=0;orthogonalLoop=1;jettySize=auto;html=1;endArrow=none;endFill=0;" parent="W3LztqFI7IO9FUA6SYYw-95" source="BVivG6dMEHyoBw1YH2q_-5" target="BVivG6dMEHyoBw1YH2q_-4" edge="1">
          <mxGeometry relative="1" as="geometry">
            <Array as="points">
              <mxPoint x="950" y="160" />
              <mxPoint x="950" y="160" />
            </Array>
          </mxGeometry>
        </mxCell>
        <mxCell id="BVivG6dMEHyoBw1YH2q_-5" value="" style="verticalLabelPosition=bottom;aspect=fixed;html=1;verticalAlign=top;strokeColor=none;align=center;outlineConnect=0;shape=mxgraph.citrix.switch;" parent="W3LztqFI7IO9FUA6SYYw-95" vertex="1">
          <mxGeometry x="680" y="120.75" width="92" height="41.5" as="geometry" />
        </mxCell>
        <mxCell id="BVivG6dMEHyoBw1YH2q_-3" value="" style="verticalLabelPosition=bottom;aspect=fixed;html=1;verticalAlign=top;strokeColor=none;align=center;outlineConnect=0;shape=mxgraph.citrix.switch;" parent="W3LztqFI7IO9FUA6SYYw-95" vertex="1">
          <mxGeometry x="1000" y="18.639999999999986" width="92" height="41.5" as="geometry" />
        </mxCell>
        <mxCell id="BVivG6dMEHyoBw1YH2q_-15" value="" style="rounded=0;whiteSpace=wrap;html=1;fillColor=#ffcccc;strokeColor=#36393d;opacity=50;" parent="W3LztqFI7IO9FUA6SYYw-95" vertex="1">
          <mxGeometry x="610" y="24.37" width="650" height="60" as="geometry" />
        </mxCell>
        <mxCell id="BVivG6dMEHyoBw1YH2q_-16" value="" style="rounded=0;whiteSpace=wrap;html=1;fillColor=#e1d5e7;strokeColor=#9673a6;opacity=50;" parent="W3LztqFI7IO9FUA6SYYw-95" vertex="1">
          <mxGeometry x="610" y="85.5" width="650" height="60" as="geometry" />
        </mxCell>
        <mxCell id="BVivG6dMEHyoBw1YH2q_-17" value="" style="image;html=1;labelBackgroundColor=#ffffff;image=img/lib/clip_art/networking/Router_Icon_128x128.png;" parent="W3LztqFI7IO9FUA6SYYw-95" vertex="1">
          <mxGeometry x="1694" width="80" height="80" as="geometry" />
        </mxCell>
        <mxCell id="ePytmgfdDM9zKD2LcpEi-5" value="Security&lt;br&gt;PROBES" style="ellipse;whiteSpace=wrap;html=1;fillColor=#d5e8d4;strokeColor=#82b366;gradientColor=#B85450;strokeWidth=6;" vertex="1" parent="W3LztqFI7IO9FUA6SYYw-95">
          <mxGeometry x="1460" y="40.75" width="120" height="80" as="geometry" />
        </mxCell>
        <mxCell id="ePytmgfdDM9zKD2LcpEi-6" value="Security&lt;br&gt;PROBES" style="ellipse;whiteSpace=wrap;html=1;fillColor=#d5e8d4;strokeColor=#82b366;gradientColor=#CC99FF;gradientDirection=south;shadow=0;strokeWidth=6;perimeterSpacing=0;" vertex="1" parent="W3LztqFI7IO9FUA6SYYw-95">
          <mxGeometry x="1450" y="112.44" width="120" height="80" as="geometry" />
        </mxCell>
        <mxCell id="ePytmgfdDM9zKD2LcpEi-2" value="Security&lt;br&gt;PROBES" style="ellipse;whiteSpace=wrap;html=1;fillColor=#d5e8d4;strokeColor=#82b366;gradientColor=#97d077;strokeWidth=6;" vertex="1" parent="W3LztqFI7IO9FUA6SYYw-95">
          <mxGeometry x="320" y="4.369999999999983" width="120" height="80" as="geometry" />
        </mxCell>
        <mxCell id="BVivG6dMEHyoBw1YH2q_-6" style="edgeStyle=orthogonalEdgeStyle;rounded=0;orthogonalLoop=1;jettySize=auto;html=1;exitX=0.875;exitY=0.5;exitDx=0;exitDy=0;exitPerimeter=0;endArrow=none;endFill=0;" parent="W3LztqFI7IO9FUA6SYYw-60" source="W3LztqFI7IO9FUA6SYYw-64" target="BVivG6dMEHyoBw1YH2q_-1" edge="1">
          <mxGeometry relative="1" as="geometry" />
        </mxCell>
        <mxCell id="BVivG6dMEHyoBw1YH2q_-7" style="edgeStyle=orthogonalEdgeStyle;rounded=0;orthogonalLoop=1;jettySize=auto;html=1;exitX=0.96;exitY=0.7;exitDx=0;exitDy=0;exitPerimeter=0;endArrow=none;endFill=0;" parent="W3LztqFI7IO9FUA6SYYw-60" source="W3LztqFI7IO9FUA6SYYw-64" target="BVivG6dMEHyoBw1YH2q_-5" edge="1">
          <mxGeometry relative="1" as="geometry" />
        </mxCell>
        <mxCell id="W3LztqFI7IO9FUA6SYYw-64" value="Physical" style="ellipse;shape=cloud;whiteSpace=wrap;html=1;strokeWidth=3;fillColor=#ffffff;fontSize=24;verticalAlign=middle;" parent="W3LztqFI7IO9FUA6SYYw-60" vertex="1">
          <mxGeometry x="349.99999999999994" y="-7.074380165289197" width="267.99999999999994" height="188.4297520661157" as="geometry" />
        </mxCell>
        <mxCell id="W3LztqFI7IO9FUA6SYYw-58" value="Virtual" style="ellipse;shape=cloud;whiteSpace=wrap;html=1;strokeWidth=3;fillColor=#ffffff;fontSize=24;" parent="W3LztqFI7IO9FUA6SYYw-60" vertex="1">
          <mxGeometry x="1229.9999999999998" y="-7.07438016528921" width="267.99999999999994" height="188.4297520661157" as="geometry" />
        </mxCell>
        <mxCell id="YeTNPCjQf5e7hNVR7BkF-0" value="RAN&lt;br&gt;CONTROLLER" style="ellipse;whiteSpace=wrap;html=1;fillColor=#f5f5f5;strokeColor=#666666;fontColor=#333333;" parent="W3LztqFI7IO9FUA6SYYw-60" vertex="1">
          <mxGeometry x="430" width="120" height="80" as="geometry" />
        </mxCell>
        <mxCell id="YeTNPCjQf5e7hNVR7BkF-1" value="vCORE&lt;br&gt;CONTROLLER" style="ellipse;whiteSpace=wrap;html=1;fillColor=#f5f5f5;strokeColor=#666666;fontColor=#333333;" parent="W3LztqFI7IO9FUA6SYYw-60" vertex="1">
          <mxGeometry x="1304" y="-7.07" width="120" height="80" as="geometry" />
        </mxCell>
        <mxCell id="BVivG6dMEHyoBw1YH2q_-0" value="SDN&lt;br&gt;CONTROLLER" style="ellipse;whiteSpace=wrap;html=1;fillColor=#f5f5f5;strokeColor=#666666;fontColor=#333333;" parent="W3LztqFI7IO9FUA6SYYw-60" vertex="1">
          <mxGeometry x="424" y="100" width="120" height="80" as="geometry" />
        </mxCell>
        <mxCell id="W3LztqFI7IO9FUA6SYYw-107" value="&lt;font color=&quot;#000099&quot;&gt;Management&lt;br&gt;Domain&lt;br&gt;&lt;b&gt;...&lt;/b&gt;&lt;br&gt;&lt;/font&gt;" style="rounded=0;whiteSpace=wrap;html=1;fontSize=24;strokeWidth=5;align=right;verticalAlign=top;fillColor=#ffffff;" parent="W3LztqFI7IO9FUA6SYYw-1" vertex="1">
          <mxGeometry x="1855" y="-20.000000000000004" width="345" height="560.38" as="geometry" />
        </mxCell>
        <mxCell id="W3LztqFI7IO9FUA6SYYw-111" value="&lt;font color=&quot;#000099&quot;&gt;Management&lt;br&gt;Domain&lt;br&gt;&lt;b&gt;...&lt;/b&gt;&lt;br&gt;&lt;/font&gt;" style="rounded=0;whiteSpace=wrap;html=1;fontSize=24;strokeWidth=5;align=right;verticalAlign=top;fillColor=#ffffff;" parent="W3LztqFI7IO9FUA6SYYw-1" vertex="1">
          <mxGeometry x="1865" y="-10.000000000000004" width="345" height="560.38" as="geometry" />
        </mxCell>
        <mxCell id="W3LztqFI7IO9FUA6SYYw-112" value="&lt;font color=&quot;#000099&quot;&gt;Management&lt;br&gt;Domain&lt;br&gt;&lt;b&gt;...&lt;/b&gt;&lt;br&gt;&lt;/font&gt;" style="rounded=0;whiteSpace=wrap;html=1;fontSize=24;strokeWidth=5;align=right;verticalAlign=top;fillColor=#ffffff;" parent="W3LztqFI7IO9FUA6SYYw-1" vertex="1">
          <mxGeometry x="1875" y="-3.552713678800501e-15" width="345" height="560.38" as="geometry" />
        </mxCell>
        <mxCell id="W3LztqFI7IO9FUA6SYYw-113" value="&lt;font color=&quot;#000099&quot;&gt;Management&lt;br&gt;Domain&lt;br&gt;&lt;b&gt;...&lt;/b&gt;&lt;br&gt;&lt;/font&gt;" style="rounded=0;whiteSpace=wrap;html=1;fontSize=24;strokeWidth=5;align=right;verticalAlign=top;fillColor=#ffffff;" parent="W3LztqFI7IO9FUA6SYYw-1" vertex="1">
          <mxGeometry x="1885" y="9.999999999999996" width="345" height="560.38" as="geometry" />
        </mxCell>
        <mxCell id="W3LztqFI7IO9FUA6SYYw-114" value="" style="shape=flexArrow;endArrow=classic;startArrow=classic;html=1;fontSize=16;gradientColor=#b3b3b3;fillColor=#f5f5f5;strokeColor=#666666;endWidth=55.714285714285715;endSize=11.12857142857143;startWidth=55.714285714285715;startSize=11.12857142857143;width=41.42857142857143;" parent="W3LztqFI7IO9FUA6SYYw-1" edge="1">
          <mxGeometry width="50" height="50" relative="1" as="geometry">
            <mxPoint x="2000" y="-210" as="sourcePoint" />
            <mxPoint x="2000" y="-24" as="targetPoint" />
          </mxGeometry>
        </mxCell>
        <mxCell id="W3LztqFI7IO9FUA6SYYw-116" value="" style="shape=flexArrow;endArrow=classic;startArrow=classic;html=1;fontSize=16;gradientColor=#b3b3b3;fillColor=#f5f5f5;strokeColor=#666666;endWidth=55.714285714285715;endSize=11.12857142857143;startWidth=55.714285714285715;startSize=11.12857142857143;width=41.42857142857143;" parent="W3LztqFI7IO9FUA6SYYw-1" edge="1">
          <mxGeometry width="50" height="50" relative="1" as="geometry">
            <mxPoint x="2010" y="-200" as="sourcePoint" />
            <mxPoint x="2010" y="-14" as="targetPoint" />
          </mxGeometry>
        </mxCell>
        <mxCell id="W3LztqFI7IO9FUA6SYYw-117" value="" style="shape=flexArrow;endArrow=classic;startArrow=classic;html=1;fontSize=16;gradientColor=#b3b3b3;fillColor=#f5f5f5;strokeColor=#666666;endWidth=55.714285714285715;endSize=11.12857142857143;startWidth=55.714285714285715;startSize=11.12857142857143;width=41.42857142857143;" parent="W3LztqFI7IO9FUA6SYYw-1" edge="1">
          <mxGeometry width="50" height="50" relative="1" as="geometry">
            <mxPoint x="2020" y="-190" as="sourcePoint" />
            <mxPoint x="2020" y="-4" as="targetPoint" />
          </mxGeometry>
        </mxCell>
        <mxCell id="W3LztqFI7IO9FUA6SYYw-118" value="" style="shape=flexArrow;endArrow=classic;startArrow=classic;html=1;fontSize=16;gradientColor=#b3b3b3;fillColor=#f5f5f5;strokeColor=#666666;endWidth=55.714285714285715;endSize=11.12857142857143;startWidth=55.714285714285715;startSize=11.12857142857143;width=41.42857142857143;" parent="W3LztqFI7IO9FUA6SYYw-1" edge="1">
          <mxGeometry width="50" height="50" relative="1" as="geometry">
            <mxPoint x="2030" y="-180" as="sourcePoint" />
            <mxPoint x="2030" y="6" as="targetPoint" />
          </mxGeometry>
        </mxCell>
        <mxCell id="kh-847S8lSZHKYvv5ma6-0" value="Security&lt;br&gt;Data Collector" style="rounded=1;whiteSpace=wrap;html=1;gradientColor=#97d077;fillColor=#d5e8d4;strokeColor=#82b366;labelPosition=center;verticalLabelPosition=middle;align=center;verticalAlign=middle;fontSize=23;" vertex="1" parent="W3LztqFI7IO9FUA6SYYw-1">
          <mxGeometry x="920" y="441.19" width="130" height="99.19" as="geometry" />
        </mxCell>
        <mxCell id="kh-847S8lSZHKYvv5ma6-1" value="" style="shape=flexArrow;endArrow=classic;startArrow=classic;html=1;fontSize=16;entryX=0.25;entryY=1;entryDx=0;entryDy=0;" edge="1" parent="W3LztqFI7IO9FUA6SYYw-1" target="W3LztqFI7IO9FUA6SYYw-12">
          <mxGeometry width="50" height="50" relative="1" as="geometry">
            <mxPoint x="990" y="441.19" as="sourcePoint" />
            <mxPoint x="1037.8999999999999" y="341.8500000000003" as="targetPoint" />
          </mxGeometry>
        </mxCell>
        <mxCell id="ePytmgfdDM9zKD2LcpEi-3" value="Security&lt;br&gt;PROBES" style="ellipse;whiteSpace=wrap;html=1;fillColor=#d5e8d4;strokeColor=#82b366;gradientColor=#FFFF99;strokeWidth=6;" vertex="1" parent="W3LztqFI7IO9FUA6SYYw-1">
          <mxGeometry x="1590" y="534.37" width="120" height="80" as="geometry" />
        </mxCell>
        <mxCell id="GUIuOiuHFUOsQz1oZc65-0" value="" style="shape=flexArrow;endArrow=classic;startArrow=classic;html=1;fontSize=16;entryX=0.85;entryY=0.999;entryDx=0;entryDy=0;entryPerimeter=0;exitX=0.5;exitY=-0.25;exitDx=0;exitDy=0;exitPerimeter=0;startWidth=78.33333333333334;startSize=6.95;width=78.33333333333334;endWidth=78.33333333333334;endSize=6.95;" edge="1" parent="W3LztqFI7IO9FUA6SYYw-1" target="W3LztqFI7IO9FUA6SYYw-2">
          <mxGeometry width="50" height="50" relative="1" as="geometry">
            <mxPoint x="1292.1" y="470.38" as="sourcePoint" />
            <mxPoint x="1360" y="570.38" as="targetPoint" />
          </mxGeometry>
        </mxCell>
      </root>
    </mxGraphModel>
  </diagram>
</mxfile>
